<svg width="25" height="24" viewBox="0 0 25 24" fill="none" xmlns="http://www.w3.org/2000/svg">
<circle cx="12.2484" cy="11.9999" r="9.6" fill="#A1A1AA"/>
<path fill-rule="evenodd" clip-rule="evenodd" d="M13.8172 8.69062C13.9672 8.42812 14.0516 8.12344 14.0516 7.8C14.0516 6.80625 13.2453 6 12.2516 6C11.2578 6 10.4516 6.80625 10.4516 7.8C10.4516 8.79375 11.2578 9.6 12.2516 9.6C12.9219 9.6 13.5078 9.23437 13.8172 8.69062ZM11.0516 10.8H11.6516H12.8516C13.5148 10.8 14.0516 11.3367 14.0516 12V13.2V18C14.0516 18.6633 13.5148 19.2 12.8516 19.2C12.1883 19.2 11.6516 18.6633 11.6516 18V14.1C11.6516 13.6031 11.2484 13.2 10.7516 13.2C10.2547 13.2 9.85156 12.7969 9.85156 12.3V12C9.85156 11.5781 10.0695 11.2055 10.3977 10.9922C10.5852 10.8703 10.8102 10.8 11.0516 10.8Z" fill="white"/>
</svg>
