<svg width="40" height="40" viewBox="0 0 40 40" fill="none" xmlns="http://www.w3.org/2000/svg">
<g clip-path="url(#clip0_639_6205)">
<path d="M7.302 16.0636C8.74074 14.625 10.6535 13.8326 12.6882 13.8326C14.7228 13.8326 16.6356 14.625 18.0744 16.0636L21.306 19.2953L26.6922 13.9092C28.4741 12.1272 31.3737 12.1273 33.1557 13.9092C34.9377 15.6912 34.9377 18.5906 33.1556 20.3726L27.5861 25.9421C28.0479 26.1632 28.474 26.4632 28.8467 26.836C30.6286 28.618 30.6286 31.5175 28.8467 33.2994L26.6922 35.4539C24.1025 38.0435 20.6594 39.4697 16.9971 39.4697C13.3347 39.4697 9.89169 38.0435 7.30208 35.4538C4.71239 32.8642 3.28614 29.4211 3.28614 25.7587C3.28614 22.0964 4.71239 18.6533 7.302 16.0636ZM9.45652 33.2994C11.4707 35.3136 14.1486 36.4228 16.9971 36.4228C19.8456 36.4228 22.5236 35.3136 24.5376 33.2994L26.6921 31.1449C27.2861 30.5509 27.2861 29.5845 26.6921 28.9904C26.0969 28.3953 25.1341 28.395 24.5384 28.9897L22.3833 31.1448C21.7884 31.7397 20.8236 31.7397 20.2287 31.1448C19.6338 30.5499 19.6338 29.5853 20.2287 28.9904L31.0011 18.2181C31.5952 17.6241 31.5952 16.6576 31.0012 16.0636C30.4071 15.4697 29.4407 15.4696 28.8467 16.0636L22.3833 22.5271C22.1973 22.713 21.9753 22.8408 21.7397 22.9105C21.2686 23.05 20.7434 22.957 20.3445 22.6316C20.2506 22.555 20.3321 22.6303 15.9199 18.2181C15.0567 17.3548 13.909 16.8795 12.6882 16.8795C11.4674 16.8795 10.3197 17.3549 9.45652 18.2182C7.44223 20.2323 6.33302 22.9103 6.33302 25.7587C6.33302 28.6072 7.44223 31.2852 9.45652 33.2994Z" fill="#10B981"/>
<path d="M9.6836 7.17285C11.2364 5.10242 13.2807 3.39633 15.5955 2.23889C17.9103 1.08146 20.5018 0.469727 23.0898 0.469727C25.6779 0.469727 28.2694 1.08146 30.5842 2.23889C31.7139 2.80379 32.7787 3.50022 33.7539 4.30513V3.5166C33.7539 2.67521 34.4359 1.99316 35.2773 1.99316C36.1187 1.99316 36.8008 2.67521 36.8008 3.5166V8.08691C36.8008 8.91978 36.1176 9.61035 35.2773 9.61035H30.707C29.8656 9.61035 29.1836 8.92831 29.1836 8.08691C29.1836 7.24552 29.8656 6.56348 30.707 6.56348H31.6983C29.2824 4.62064 26.2383 3.5166 23.0898 3.5166C18.7972 3.5166 14.6966 5.56684 12.1211 9.00098C11.6163 9.67395 10.6613 9.81046 9.98828 9.30566C9.31515 8.80087 9.17873 7.84598 9.6836 7.17285Z" fill="#10B981"/>
</g>
<defs>
<clipPath id="clip0_639_6205">
<rect width="39" height="39" fill="white" transform="matrix(-1 0 0 1 39.5469 0.470215)"/>
</clipPath>
</defs>
</svg>
