<svg width="34" height="40" viewBox="0 0 34 40" fill="none" xmlns="http://www.w3.org/2000/svg">
<path d="M29.6941 16.0636C28.2554 14.625 26.3426 13.8326 24.3079 13.8326C22.2733 13.8326 20.3604 14.625 18.9217 16.0636L15.69 19.2953L10.3039 13.9092C8.52197 12.1272 5.62241 12.1273 3.84037 13.9092C2.05841 15.6912 2.05841 18.5906 3.84045 20.3726L9.40998 25.9421C8.94815 26.1632 8.52212 26.4632 8.14941 26.836C6.36745 28.618 6.36745 31.5175 8.14941 33.2994L10.3039 35.4539C12.8936 38.0435 16.3367 39.4697 19.999 39.4697C23.6614 39.4697 27.1044 38.0435 29.694 35.4538C32.2837 32.8642 33.7099 29.4211 33.7099 25.7587C33.7099 22.0964 32.2837 18.6533 29.6941 16.0636ZM27.5396 33.2994C25.5254 35.3136 22.8475 36.4228 19.999 36.4228C17.1505 36.4228 14.4725 35.3136 12.4585 33.2994L10.304 31.1449C9.70995 30.5509 9.70995 29.5845 10.304 28.9904C10.8992 28.3953 11.862 28.395 12.4577 28.9897L14.6128 31.1448C15.2077 31.7397 16.1724 31.7397 16.7673 31.1448C17.3623 30.5499 17.3622 29.5853 16.7673 28.9904L5.99497 18.2181C5.4009 17.6241 5.4009 16.6576 5.99489 16.0636C6.58903 15.4697 7.55542 15.4696 8.14941 16.0636L14.6128 22.5271C14.7988 22.713 15.0208 22.8408 15.2564 22.9105C15.7275 23.05 16.2527 22.957 16.6516 22.6316C16.7455 22.555 16.664 22.6303 21.0762 18.2181C21.9394 17.3548 23.0871 16.8795 24.3079 16.8795C25.5287 16.8795 26.6764 17.3549 27.5396 18.2182C29.5539 20.2323 30.6631 22.9103 30.6631 25.7587C30.6631 28.6072 29.5539 31.2852 27.5396 33.2994Z" fill="#FF3957"/>
<path d="M27.3125 7.17285C25.7597 5.10242 23.7154 3.39633 21.4006 2.23889C19.0858 1.08146 16.4943 0.469727 13.9062 0.469727C11.3182 0.469727 8.72671 1.08146 6.41193 2.23889C5.28215 2.80379 4.21742 3.50022 3.24219 4.30513V3.5166C3.24219 2.67521 2.56014 1.99316 1.71875 1.99316C0.877355 1.99316 0.195312 2.67521 0.195312 3.5166V8.08691C0.195312 8.91978 0.878498 9.61035 1.71875 9.61035H6.28906C7.13046 9.61035 7.8125 8.92831 7.8125 8.08691C7.8125 7.24552 7.13046 6.56348 6.28906 6.56348H5.29784C7.7137 4.62064 10.7578 3.5166 13.9062 3.5166C18.1989 3.5166 22.2995 5.56684 24.875 9.00098C25.3798 9.67395 26.3348 9.81046 27.0078 9.30566C27.6809 8.80087 27.8174 7.84598 27.3125 7.17285Z" fill="#FF3957"/>
</svg>
