<svg width="133" height="130" viewBox="0 0 133 130" fill="none" xmlns="http://www.w3.org/2000/svg">
<path d="M91.4136 112.021C84.1114 113.978 76.8408 115.97 69.5166 117.844C68.3798 118.127 67.0449 118 65.8471 117.725C59.7791 115.978 54.4666 112.772 53.0607 105.962C50.2192 93.9581 46.7962 82.0885 43.5583 70.1692C42.8268 67.5212 43.2795 65.2614 44.7596 62.9688C55.1553 47.4626 62.2797 36.7791 58.7693 17.2607C58.4493 7.75631 72.2744 10.6437 74.6049 17.4489C82.1994 31.6401 73.9964 48.8296 80.4544 46.4378C88.5949 44.5652 96.7298 42.6721 104.865 40.7789C110.879 39.3657 117.097 43.2334 118.74 50.0243C121.273 63.345 122.03 77.0313 124.208 90.4251C125.874 108.079 103.257 107.679 91.4136 112.021Z" fill="#10B981"/>
<path d="M15.1124 70.1413L32.8845 65.3793C34.8797 64.8447 36.9401 66.0342 37.4748 68.0295L50.9396 118.281C51.4742 120.276 50.2846 122.336 48.2894 122.871L30.5173 127.633C28.5276 128.188 26.4672 126.999 25.927 124.983L12.4677 74.7521C11.9276 72.7363 13.1172 70.6759 15.1124 70.1413Z" fill="#10B981"/>
</svg>
