<svg width="133" height="130" viewBox="0 0 133 130" fill="none" xmlns="http://www.w3.org/2000/svg">
<path d="M64.3938 11.1781C57.0916 13.1347 49.7989 15.0446 42.5188 17.0835C41.393 17.4072 40.3007 18.185 39.4004 19.0214C35.019 23.5685 32.0214 29.0014 34.209 35.6024C37.7499 47.4184 40.7204 59.4094 43.876 71.3507C44.5664 74.0097 46.0883 75.7404 48.5164 76.9858C65.2725 85.2167 76.7841 90.9067 83.5033 109.565C87.9783 117.956 98.5075 108.543 97.1232 101.485C96.6047 85.3973 80.9059 74.6123 87.6946 73.4547C95.6807 71.0061 103.672 68.5782 111.664 66.1503C117.579 64.3668 121.03 57.9086 119.058 51.2059C114.591 38.4033 108.403 26.172 103.593 13.4837C96.2085 -2.63778 76.8219 9.01642 64.3938 11.1781Z" fill="#FF3957"/>
<path d="M19.253 85.5983L37.0251 80.8363C39.0204 80.3017 40.2099 78.2413 39.6753 76.246L26.2105 25.9947C25.6759 23.9995 23.6155 22.8099 21.6202 23.3445L3.84816 28.1065C1.84741 28.6206 0.657833 30.681 1.19797 32.6968L14.6573 82.9276C15.1974 84.9434 17.2578 86.1329 19.253 85.5983Z" fill="#FF3957"/>
</svg>
