<svg width="24" height="24" viewBox="0 0 24 24" fill="none" xmlns="http://www.w3.org/2000/svg">
<path d="M21.9912 15.2325C21.2617 17.4899 19.7892 19.4337 17.8137 20.7473C15.8382 22.0608 13.4761 22.6666 11.1122 22.4661C8.74839 22.2655 6.52213 21.2703 4.79618 19.6427C3.07023 18.0151 1.94634 15.8509 1.6076 13.5029C1.26887 11.1549 1.73526 8.7613 2.9308 6.71222C4.12634 4.66314 5.98055 3.07931 8.19133 2.21878C10.4021 1.35826 12.8391 1.27175 15.1054 1.97337C17.3716 2.67498 19.3334 4.12336 20.6712 6.08252L21.0012 4.35002C21.0209 4.25153 21.0598 4.15788 21.1157 4.07443C21.1716 3.99097 21.2434 3.91934 21.327 3.86362C21.4105 3.80791 21.5043 3.7692 21.6028 3.74971C21.7013 3.73022 21.8027 3.73032 21.9012 3.75002C21.9997 3.76972 22.0934 3.80862 22.1768 3.86451C22.2603 3.9204 22.3319 3.99218 22.3876 4.07576C22.4433 4.15933 22.4821 4.25306 22.5015 4.35159C22.521 4.45012 22.5209 4.55153 22.5012 4.65002L21.7512 8.40002C21.7512 8.40002 21.7512 8.43752 21.7512 8.46002C21.7345 8.51126 21.7144 8.56136 21.6912 8.61002L21.6087 8.73002C21.5775 8.76632 21.5422 8.79902 21.5037 8.82752C21.4662 8.82752 21.4437 8.88752 21.4062 8.91002H21.3387C21.2349 8.96616 21.1193 8.997 21.0012 9.00002C20.9061 9.00142 20.8117 8.98356 20.7237 8.94752L16.9737 7.44752C16.7887 7.37392 16.6406 7.22985 16.5618 7.04701C16.483 6.86416 16.4801 6.65751 16.5537 6.47252C16.6273 6.28753 16.7714 6.13936 16.9543 6.06059C17.1371 5.98183 17.3437 5.97892 17.5287 6.05252L19.3362 6.80252C18.1614 5.15248 16.4643 3.947 14.5195 3.38103C12.5746 2.81506 10.4957 2.92171 8.61892 3.68372C6.74217 4.44573 5.17735 5.81854 4.17753 7.58014C3.17772 9.34173 2.80137 11.3891 3.10937 13.3911C3.41737 15.3931 4.3917 17.2326 5.87478 18.6122C7.35785 19.9918 9.26296 20.8308 11.282 20.9935C13.301 21.1562 15.3158 20.633 17.0006 19.5086C18.6854 18.3842 19.9417 16.7244 20.5662 14.7975C20.6333 14.6154 20.7683 14.4664 20.943 14.3818C21.1176 14.2971 21.3182 14.2835 21.5027 14.3437C21.6872 14.4039 21.8411 14.5333 21.9322 14.7046C22.0233 14.8759 22.0445 15.0759 21.9912 15.2625V15.2325ZM10.8762 6.00002C10.6773 6.00002 10.4866 6.07904 10.3459 6.21969C10.2053 6.36034 10.1262 6.55111 10.1262 6.75002V12C10.1262 12.197 10.165 12.3921 10.2404 12.574C10.3158 12.756 10.4263 12.9214 10.5656 13.0607C10.7049 13.2 10.8702 13.3105 11.0522 13.3858C11.2342 13.4612 11.4293 13.5 11.6262 13.5H16.1262C16.3251 13.5 16.5159 13.421 16.6566 13.2804C16.7972 13.1397 16.8762 12.9489 16.8762 12.75C16.8762 12.5511 16.7972 12.3603 16.6566 12.2197C16.5159 12.079 16.3251 12 16.1262 12H11.6262V6.75002C11.6262 6.55111 11.5472 6.36034 11.4066 6.21969C11.2659 6.07904 11.0751 6.00002 10.8762 6.00002Z" fill="#4B5462"/>
</svg>
