<svg width="21" height="20" viewBox="0 0 21 20" fill="none" xmlns="http://www.w3.org/2000/svg">
<path d="M20.5227 16.7241L16.1065 12.4969C15.2956 11.7206 14.0172 11.7204 13.2059 12.4964C12.3423 13.3225 12.3423 14.7021 13.2059 15.5282L17.4915 19.6275C17.9733 20.0883 18.7662 20.0883 19.248 19.6275L20.5227 18.4082C21.0044 17.9434 21.0044 17.1808 20.5227 16.7241Z" fill="#B2CCFF"/>
<path d="M10.9923 12.0339C11.4172 12.4403 12.0869 12.4403 12.5118 12.0339C12.9643 11.601 12.9643 10.8781 12.5118 10.4453L12.3549 10.2952C11.8826 9.84336 11.8326 9.11714 12.1088 8.52473C13.1465 6.29909 12.7139 3.59613 10.8056 1.7708C8.33722 -0.590268 4.32555 -0.590268 1.85289 1.7708C-0.619762 4.13188 -0.615499 7.96913 1.85289 10.3343C3.76763 12.1658 6.6061 12.5761 8.93737 11.5707C9.55038 11.3063 10.2829 11.3553 10.7654 11.8168L10.9923 12.0339ZM3.0807 9.14355C1.29015 7.43085 1.29015 4.65384 3.0807 2.94522C4.87124 1.23253 7.77448 1.23253 9.56076 2.94522C11.3513 4.65792 11.3513 7.43493 9.56076 9.14355C7.77448 10.8562 4.87124 10.8562 3.0807 9.14355Z" fill="#B2CCFF"/>
</svg>
