<svg width="23" height="23" viewBox="0 0 23 23" fill="none" xmlns="http://www.w3.org/2000/svg">
<path d="M19.8549 19.8471C18.1006 21.6014 15.7951 22.4789 13.4911 22.4789C11.1871 22.4789 8.88161 21.6014 7.12736 19.8471C5.42711 18.1476 4.49111 15.8871 4.49111 13.4834C4.49111 11.8499 4.93286 10.2876 5.74361 8.91735L8.55011 11.7239C7.89311 13.5734 8.29886 15.7154 9.77861 17.1959C11.8291 19.2464 15.1531 19.2464 17.2029 17.1959C19.2526 15.1454 19.2534 11.8214 17.2029 9.77085C15.7231 8.2911 13.5804 7.88535 11.7316 8.5416L8.92736 5.73735C12.3766 3.70635 16.8961 4.1601 19.8549 7.11885C23.3641 10.6281 23.3641 16.3386 19.8549 19.8471ZM13.1266 15.3696C12.5259 15.3696 11.9604 15.1356 11.5359 14.7104L10.5174 13.6919C10.5661 14.3871 10.8429 15.0704 11.3731 15.6006C11.9566 16.1841 12.7239 16.4759 13.4904 16.4759C14.2569 16.4759 15.0241 16.1841 15.6076 15.6006C16.7754 14.4329 16.7754 12.5331 15.6076 11.3661C15.0774 10.8359 14.3941 10.5591 13.6989 10.5104L14.7174 11.5289C15.5949 12.4056 15.5949 13.8336 14.7174 14.7104C14.2929 15.1356 13.7274 15.3696 13.1266 15.3696ZM12.5964 13.6499C12.7426 13.7961 12.9346 13.8696 13.1266 13.8696C13.3186 13.8696 13.5106 13.7961 13.6569 13.6499C13.9501 13.3566 13.9501 12.8826 13.6569 12.5894L7.03061 5.96235V3.0906C7.03061 2.89185 6.95186 2.7006 6.81086 2.56035L5.21936 0.969602C5.04911 0.798602 4.80461 0.721352 4.56911 0.759602C4.33136 0.798602 4.12661 0.948602 4.01861 1.1646L3.06986 3.0621L1.17236 4.01085C0.956361 4.11885 0.806361 4.3236 0.767361 4.56135C0.729111 4.7991 0.807111 5.04135 0.977361 5.2116L2.56886 6.80235C2.70986 6.94335 2.90036 7.0221 3.09911 7.0221H5.97086L12.5971 13.6491L12.5964 13.6499Z" fill="#527DFF"/>
</svg>
