<svg width="25" height="22" viewBox="0 0 25 22" fill="none" xmlns="http://www.w3.org/2000/svg">
<path fill-rule="evenodd" clip-rule="evenodd" d="M9.73483 3.19581C9.68796 3.19606 9.63909 3.20171 9.58862 3.2132C4.25117 4.4285 0.25 9.21633 0.25 14.9142C0.25 17.0174 0.797541 18.9951 1.75375 20.7165C2.04612 21.3727 2.60687 21.6985 3.28945 21.6996H21.2105C21.893 21.6985 22.4538 21.3727 22.7462 20.7165C23.7024 18.9951 24.2499 17.0174 24.2499 14.9142C24.2499 9.21633 20.2487 4.4285 14.9113 3.2132C14.8608 3.20171 14.8119 3.19606 14.7651 3.19581C14.437 3.19404 14.2089 3.45592 14.2403 3.81699L14.3413 4.9776C14.3772 5.39025 14.7347 5.7978 15.1293 5.92334C18.9394 7.1355 21.6856 10.693 21.6856 14.9142C21.6856 16.1307 21.4086 17.2882 20.9355 18.3529C20.7674 18.7313 20.2686 19.0256 19.8544 19.0256C14.7848 19.0256 9.71514 19.0256 4.64552 19.0256C4.23131 19.0256 3.73254 18.7313 3.56438 18.3529C3.09127 17.2882 2.81429 16.1307 2.81429 14.9142C2.81429 10.693 5.56048 7.1355 9.37063 5.92334C9.76524 5.7978 10.1227 5.39025 10.1586 4.9776L10.2596 3.81699C10.291 3.45592 10.0629 3.19404 9.73483 3.19581Z" fill="#527DFF"/>
<path fill-rule="evenodd" clip-rule="evenodd" d="M14.7651 3.19581C14.4371 3.19404 14.2089 3.45592 14.2403 3.81699L14.3413 4.9776C14.3772 5.39025 14.7347 5.7978 15.1293 5.92334C18.9395 7.1355 21.6857 10.693 21.6857 14.9142C21.6857 16.1307 21.4087 17.2882 20.9356 18.3529C20.7674 18.7313 20.2686 19.0256 19.8544 19.0256H12.25V21.6996H21.2105C21.8931 21.6985 22.4538 21.3727 22.7462 20.7165C23.7024 18.9951 24.25 17.0174 24.25 14.9142C24.25 9.21633 20.2488 4.4285 14.9113 3.2132C14.8609 3.20171 14.812 3.19606 14.7651 3.19581Z" fill="#527DFF"/>
<path fill-rule="evenodd" clip-rule="evenodd" d="M11.4928 1.01397C11.1473 4.97034 10.8033 8.93019 10.4589 12.8879C10.3727 13.8792 11.26 14.684 12.2581 14.684C13.2562 14.684 14.1436 13.8792 14.0573 12.8879C13.713 8.93019 13.369 4.97034 13.0235 1.01397C12.9577 0.609531 12.6535 0.300293 12.2581 0.300293C11.8628 0.300293 11.5586 0.609531 11.4928 1.01397Z" fill="#527DFF"/>
<path fill-rule="evenodd" clip-rule="evenodd" d="M12.25 0.300293V14.6824C13.2479 14.6824 14.1351 13.8777 14.0488 12.8865C13.7045 8.9292 13.3606 4.9698 13.0152 1.01385C12.9494 0.609458 12.6453 0.300293 12.25 0.300293Z" fill="#527DFF"/>
</svg>
