<svg width="25" height="24" viewBox="0 0 25 24" fill="none" xmlns="http://www.w3.org/2000/svg">
<path d="M21.0434 20.3521V5.28011C21.0434 3.45611 19.6034 2.01611 17.7794 2.01611H17.5874C17.5874 4.03211 15.9554 5.56811 14.0354 5.56811H10.8674C8.85137 5.56811 7.31537 3.93611 7.31537 2.01611H7.12337C5.29937 2.01611 3.85938 3.45611 3.85938 5.28011V20.4481C3.85938 22.2721 5.29937 23.7121 7.12337 23.7121H17.8754C19.6034 23.6161 21.0434 22.1761 21.0434 20.3521ZM12.3074 20.1601C9.23537 20.1601 6.83537 17.6641 6.83537 14.6881C6.83537 11.6161 9.33137 9.21611 12.3074 9.21611C15.3794 9.21611 17.7794 11.7121 17.7794 14.6881C17.7794 17.7601 15.2834 20.1601 12.3074 20.1601Z" fill="#527DFF"/>
<path d="M14.1359 3.74398C15.0959 3.74398 15.7679 2.97598 15.7679 2.11198C15.7679 1.24798 14.9999 0.47998 14.1359 0.47998H10.9679C10.0079 0.47998 9.33594 1.24798 9.33594 2.11198C9.33594 2.97598 10.1039 3.74398 10.9679 3.74398H14.1359Z" fill="#527DFF"/>
<path d="M14.3248 12.9599L11.3488 14.7839L10.6768 13.7279C10.3888 13.2479 9.81281 13.1519 9.33281 13.4399C8.85281 13.7279 8.75681 14.3039 9.04481 14.7839L10.0048 16.3199C10.3888 16.8959 11.2528 17.1839 11.8288 16.7039L15.1888 14.5919C15.6688 14.3039 15.7648 13.7279 15.4768 13.2479C15.3808 12.7679 14.8048 12.6719 14.3248 12.9599Z" fill="#527DFF"/>
</svg>

