<svg width="19" height="22" viewBox="0 0 19 22" fill="none" xmlns="http://www.w3.org/2000/svg">
<path d="M18.0434 18.3521V3.28011C18.0434 1.45611 16.6034 0.0161133 14.7794 0.0161133H14.5874C14.5874 2.03211 12.9554 3.56811 11.0354 3.56811H7.86737C5.85137 3.56811 4.31537 1.93611 4.31537 0.0161133H4.12337C2.29937 0.0161133 0.859375 1.45611 0.859375 3.28011V18.4481C0.859375 20.2721 2.29937 21.7121 4.12337 21.7121H14.8754C16.6034 21.6161 18.0434 20.1761 18.0434 18.3521ZM9.30737 18.1601C6.23537 18.1601 3.83537 15.6641 3.83537 12.6881C3.83537 9.61611 6.33137 7.21611 9.30737 7.21611C12.3794 7.21611 14.7794 9.71211 14.7794 12.6881C14.7794 15.7601 12.2834 18.1601 9.30737 18.1601Z" fill="#527DFF"/>
</svg>
