<svg width="45" height="46" viewBox="0 0 45 46" fill="none" xmlns="http://www.w3.org/2000/svg">
<g clip-path="url(#clip0_617_2041)">
<path d="M42.9256 43.7421H40.9979V15.7521C40.9979 14.4493 39.9379 13.3894 38.6352 13.3894H34.3265C33.0237 13.3894 31.9638 14.4494 31.9638 15.7521V43.7421H27.069V28.4337C27.069 27.1309 26.0091 26.0711 24.7063 26.0711H20.3976C19.0948 26.0711 18.0349 27.131 18.0349 28.4337V43.7421H13.1401V35.814C13.1401 34.5112 12.0801 33.4513 10.7774 33.4513H6.46857C5.16577 33.4513 4.1059 34.5113 4.1059 35.814V43.7421H2.07422C1.5888 43.7421 1.19531 44.1356 1.19531 44.621C1.19531 45.1064 1.5888 45.4999 2.07422 45.4999H42.9256C43.411 45.4999 43.8045 45.1064 43.8045 44.621C43.8045 44.1356 43.411 43.7421 42.9256 43.7421ZM11.3821 43.7421H5.86362V35.814C5.86362 35.4804 6.13494 35.2091 6.46849 35.2091H10.7772C11.1108 35.2091 11.3821 35.4804 11.3821 35.814V43.7421ZM25.3111 43.7421H19.7926V28.4337C19.7926 28.1002 20.0639 27.8289 20.3975 27.8289H24.7062C25.0397 27.8289 25.3111 28.1002 25.3111 28.4337V43.7421ZM39.2401 43.7421H33.7216V15.7521C33.7216 15.4185 33.9929 15.1472 34.3265 15.1472H38.6352C38.9688 15.1472 39.2401 15.4185 39.2401 15.7521V43.7421Z" fill="#234FD3"/>
<path d="M40.9947 1.42426C41.007 1.1844 40.9227 0.940508 40.7395 0.757344C40.5563 0.57418 40.3125 0.489717 40.0726 0.502109C40.0584 0.501494 40.0445 0.5 40.0301 0.5H34.7127C34.2273 0.5 33.8338 0.893486 33.8338 1.37891C33.8338 1.86433 34.2273 2.25781 34.7127 2.25781H37.996L29.3074 10.9465L26.0308 7.66994C25.866 7.50515 25.6424 7.41251 25.4094 7.41251C25.1763 7.41251 24.9527 7.50515 24.7879 7.66994L8.98788 23.47C8.64467 23.8133 8.64467 24.3698 8.98788 24.7131C9.15953 24.8846 9.38444 24.9703 9.60935 24.9703C9.83427 24.9703 10.0593 24.8846 10.2308 24.7129L25.4094 9.53428L28.6859 12.8108C29.0291 13.1541 29.5857 13.1541 29.929 12.8108L39.239 3.50085V6.47243C39.239 6.95785 39.6325 7.35134 40.1179 7.35134C40.6034 7.35134 40.9969 6.95785 40.9969 6.47243V1.4668C40.9969 1.45247 40.9954 1.4385 40.9947 1.42426Z" fill="#234FD3"/>
<path d="M6.64453 28.0369C7.12994 28.0369 7.52344 27.6434 7.52344 27.158C7.52344 26.6726 7.12994 26.2791 6.64453 26.2791C6.15912 26.2791 5.76562 26.6726 5.76562 27.158C5.76562 27.6434 6.15912 28.0369 6.64453 28.0369Z" fill="#234FD3"/>
</g>
<defs>
<clipPath id="clip0_617_2041">
<rect width="45" height="45" fill="white" transform="translate(0 0.5)"/>
</clipPath>
</defs>
</svg>
