<svg width="25" height="24" viewBox="0 0 25 24" fill="none" xmlns="http://www.w3.org/2000/svg">
<path d="M22.7463 10.9702V13.0302C22.7463 13.5802 22.3063 14.0302 21.7463 14.0502H19.7863C18.7063 14.0502 17.7163 13.2602 17.6263 12.1802C17.5663 11.5502 17.8063 10.9602 18.2263 10.5502C18.5963 10.1702 19.1063 9.9502 19.6663 9.9502H21.7463C22.3063 9.9702 22.7463 10.4202 22.7463 10.9702Z" fill="#527DFF"/>
<path d="M21.22 15.55H19.79C17.89 15.55 16.29 14.12 16.13 12.3C16.04 11.26 16.42 10.22 17.18 9.48C17.82 8.82 18.71 8.45 19.67 8.45H21.22C21.51 8.45 21.75 8.21 21.72 7.92C21.5 5.49 19.89 3.83 17.5 3.55C17.26 3.51 17.01 3.5 16.75 3.5H7.75C7.47 3.5 7.2 3.52 6.94 3.56C4.39 3.88 2.75 5.78 2.75 8.5V15.5C2.75 18.26 4.99 20.5 7.75 20.5H16.75C19.55 20.5 21.48 18.75 21.72 16.08C21.75 15.79 21.51 15.55 21.22 15.55ZM13.75 9.75H7.75C7.34 9.75 7 9.41 7 9C7 8.59 7.34 8.25 7.75 8.25H13.75C14.16 8.25 14.5 8.59 14.5 9C14.5 9.41 14.16 9.75 13.75 9.75Z" fill="#527DFF"/>
</svg>
