<svg width="42" height="44" viewBox="0 0 42 44" fill="none" xmlns="http://www.w3.org/2000/svg">
<path d="M13.896 11.2043H15.1205C15.5862 11.2043 15.9639 10.8267 15.9639 10.3609C15.9639 9.89514 15.5862 9.51756 15.1205 9.51756H13.896C13.7893 9.51756 13.7024 9.43069 13.7024 9.32392V8.50549H14.7982C15.2639 8.50549 15.6416 8.12791 15.6416 7.6621C15.6416 7.1963 15.2639 6.81872 14.7982 6.81872H13.7024V6.00029C13.7024 5.89352 13.7893 5.80665 13.896 5.80665H15.1205C15.5862 5.80665 15.9639 5.42906 15.9639 4.96326C15.9639 4.49746 15.5862 4.11987 15.1205 4.11987H13.896C12.8592 4.11987 12.0156 4.96343 12.0156 6.00029V9.32392C12.0156 10.3608 12.8592 11.2043 13.896 11.2043Z" fill="#234FD3"/>
<path d="M19.5881 9.51756H18.1403C17.6745 9.51756 17.2969 9.89514 17.2969 10.3609C17.2969 10.8267 17.6745 11.2043 18.1403 11.2043H19.5881C20.7973 11.2043 21.7809 10.2206 21.7809 9.01153C21.7809 7.80244 20.7973 6.81872 19.5881 6.81872H19.4897C19.2106 6.81872 18.9837 6.59176 18.9837 6.31268C18.9837 6.03361 19.2106 5.80665 19.4897 5.80665H20.4606C20.9263 5.80665 21.304 5.42906 21.304 4.96326C21.304 4.49746 20.9263 4.11987 20.4606 4.11987H19.4897C18.2805 4.11987 17.2969 5.1036 17.2969 6.31268C17.2969 7.52176 18.2805 8.50549 19.4897 8.50549H19.5881C19.8672 8.50549 20.0941 8.73245 20.0941 9.01153C20.0941 9.2906 19.8672 9.51756 19.5881 9.51756Z" fill="#234FD3"/>
<path d="M10.3102 4.11987H7.52698C7.06126 4.11987 6.68359 4.49746 6.68359 4.96326C6.68359 5.42906 7.06126 5.80665 7.52698 5.80665H8.07518V10.3609C8.07518 10.8267 8.45285 11.2043 8.91857 11.2043C9.38429 11.2043 9.76196 10.8267 9.76196 10.3609V5.80665H10.3102C10.7759 5.80665 11.1536 5.42906 11.1536 4.96326C11.1536 4.49746 10.776 4.11987 10.3102 4.11987Z" fill="#234FD3"/>
<path d="M23.7614 5.80665H24.3096V10.3609C24.3096 10.8267 24.6872 11.2043 25.1529 11.2043C25.6187 11.2043 25.9963 10.8267 25.9963 10.3609V5.80665H26.5445C27.0103 5.80665 27.3879 5.42906 27.3879 4.96326C27.3879 4.49746 27.0103 4.11987 26.5445 4.11987H23.7614C23.2956 4.11987 22.918 4.49746 22.918 4.96326C22.918 5.42906 23.2956 5.80665 23.7614 5.80665Z" fill="#234FD3"/>
<path d="M9.5685 14.5781H6.19495C5.72923 14.5781 5.35156 14.9557 5.35156 15.4215V18.7951C5.35156 19.2609 5.72923 19.6385 6.19495 19.6385H9.5685C10.0342 19.6385 10.4119 19.2609 10.4119 18.7951V15.4215C10.4119 14.9557 10.0343 14.5781 9.5685 14.5781ZM8.72512 17.9517H7.03834V16.2649H8.72512V17.9517Z" fill="#234FD3"/>
<path d="M26.7031 18.795C26.7031 19.0169 26.7933 19.2345 26.9502 19.3913C27.1072 19.5482 27.3247 19.6384 27.5465 19.6384C27.7683 19.6384 27.9859 19.5482 28.1427 19.3913C28.3004 19.2345 28.3899 19.0169 28.3899 18.795C28.3899 18.5732 28.3004 18.3556 28.1427 18.1988C27.9859 18.0419 27.7691 17.9517 27.5465 17.9517C27.3247 17.9517 27.1071 18.0419 26.9502 18.1988C26.7933 18.3556 26.7031 18.5732 26.7031 18.795Z" fill="#234FD3"/>
<path d="M24.169 17.9517H12.9098C12.4441 17.9517 12.0664 18.3292 12.0664 18.795C12.0664 19.2609 12.4441 19.6384 12.9098 19.6384H24.169C24.6347 19.6384 25.0124 19.2609 25.0124 18.795C25.0124 18.3292 24.6348 17.9517 24.169 17.9517Z" fill="#234FD3"/>
<path d="M9.5685 23.3491H6.19495C5.72923 23.3491 5.35156 23.7267 5.35156 24.1925V27.5661C5.35156 28.0319 5.72923 28.4095 6.19495 28.4095H9.5685C10.0342 28.4095 10.4119 28.0319 10.4119 27.5661V24.1925C10.4119 23.7267 10.0343 23.3491 9.5685 23.3491ZM8.72512 26.7227H7.03834V25.0359H8.72512V26.7227Z" fill="#234FD3"/>
<path d="M9.5685 32.1204H6.19495C5.72923 32.1204 5.35156 32.4979 5.35156 32.9637V36.3373C5.35156 36.8031 5.72923 37.1807 6.19495 37.1807H9.5685C10.0342 37.1807 10.4119 36.8031 10.4119 36.3373V32.9637C10.4119 32.4979 10.0343 32.1204 9.5685 32.1204ZM8.72512 35.4939H7.03834V33.8071H8.72512V35.4939Z" fill="#234FD3"/>
<path d="M20.1524 35.4939H12.9098C12.4441 35.4939 12.0664 35.8715 12.0664 36.3373C12.0664 36.8031 12.4441 37.1807 12.9098 37.1807H20.1524C20.6181 37.1807 20.9958 36.8031 20.9958 36.3373C20.9958 35.8715 20.6182 35.4939 20.1524 35.4939Z" fill="#234FD3"/>
<path d="M40.3982 7.12171C39.6568 6.6936 38.793 6.58 37.9662 6.80156C37.1393 7.02311 36.4482 7.55344 36.0203 8.29486L35.2085 9.70079V9.70096L34.0729 11.668V3.2767C34.0729 1.69552 32.7866 0.40918 31.2054 0.40918H2.86752C1.28634 0.40918 0 1.69552 0 3.2767V40.7231C0 42.3043 1.28634 43.5907 2.86752 43.5907H31.2054C32.7866 43.5907 34.0729 42.3043 34.0729 40.7231V24.6144C34.0729 24.5761 34.0694 24.5388 34.0645 24.5018L40.7595 12.9057L41.5713 11.4996C42.4548 9.96924 41.9286 8.00532 40.3982 7.12171ZM38.4028 8.43081C38.7945 8.32573 39.2036 8.3797 39.5548 8.58245C40.2798 9.00103 40.529 9.93128 40.1105 10.6563L39.7204 11.3319L37.091 9.8138L37.481 9.13816C37.6839 8.78698 38.0111 8.53573 38.4028 8.43081ZM28.1373 31.3944L25.5079 29.8763L36.2476 11.2745L38.877 12.7926L28.1373 31.3944ZM25.0243 31.5448L26.9341 32.6474L24.639 34.4175L25.0243 31.5448ZM32.386 40.7231C32.386 41.3742 31.8564 41.9039 31.2053 41.9039H2.86744C2.21634 41.9039 1.68669 41.3742 1.68669 40.7231V3.2767C1.68669 2.6256 2.21634 2.09596 2.86744 2.09596H31.2053C31.8564 2.09596 32.386 2.6256 32.386 3.2767V14.5781C32.386 14.5816 32.3865 14.585 32.3865 14.5885L25.3808 26.7229H12.9143C12.4486 26.7229 12.0709 27.1005 12.0709 27.5663C12.0709 28.0321 12.4486 28.4097 12.9143 28.4097H24.407L23.6254 29.7633C23.5704 29.8586 23.5346 29.9638 23.5199 30.0728L22.6946 36.2253C22.6491 36.5642 22.8126 36.8969 23.1088 37.0679C23.2398 37.1435 23.3853 37.1809 23.5304 37.1809C23.7129 37.1809 23.8946 37.1217 24.0455 37.0053L28.961 33.2143C29.0481 33.1471 29.1213 33.0634 29.1763 32.9682L32.386 27.4089V40.7231Z" fill="#234FD3"/>
</svg>
