<svg width="24" height="24" viewBox="0 0 24 24" fill="none" xmlns="http://www.w3.org/2000/svg">
<rect width="24" height="24" rx="4" fill="#D8D1FF"/>
<path d="M11.2968 4.99988H18.0831C18.5881 4.99988 18.9973 5.41819 18.9973 5.93447V13.3958C18.9973 13.9132 18.5881 14.3315 18.0831 14.3315H12.5352M7.84986 8.85384C8.34979 8.85384 8.82926 8.65082 9.18276 8.28944C9.53627 7.92806 9.73487 7.43792 9.73487 6.92686C9.73487 6.41579 9.53627 5.92566 9.18276 5.56428C8.82926 5.2029 8.34979 4.99988 7.84986 4.99988C7.34992 4.99988 6.87046 5.2029 6.51695 5.56428C6.16344 5.92566 5.96484 6.41579 5.96484 6.92686C5.96484 7.43792 6.16344 7.92806 6.51695 8.28944C6.87046 8.65082 7.34992 8.85384 7.84986 8.85384Z" stroke="#544D80" stroke-width="0.933333" stroke-linecap="round" stroke-linejoin="round"/>
<path d="M13.5179 11.2824C13.5179 10.7336 13.0567 10.2883 12.4882 10.2883H7.65188C6.94752 10.2883 6.27201 10.5585 5.77395 11.0393C5.2759 11.5202 4.99609 12.1724 4.99609 12.8524V15.128H6.134L6.51397 18.9998H8.78978L9.66402 12.2775H12.4882C13.0567 12.2775 13.5179 11.8322 13.5179 11.2824Z" stroke="#544D80" stroke-width="0.933333" stroke-linecap="round" stroke-linejoin="round"/>
</svg>
