<svg width="47" height="50" viewBox="0 0 47 50" fill="none" xmlns="http://www.w3.org/2000/svg">
<mask id="path-1-outside-1_617_2007" maskUnits="userSpaceOnUse" x="0" y="-0.410889" width="47" height="51" fill="black">
<rect fill="white" y="-0.410889" width="47" height="51"/>
<path d="M28.3176 8.17375V6.52157C28.3176 5.0805 27.1452 3.90803 25.7041 3.90803H11.1783C9.73722 3.90803 8.56486 5.0804 8.56486 6.52157V8.17375C8.56486 9.61482 9.73722 10.7873 11.1783 10.7873H25.7041C27.1451 10.7873 28.3176 9.61482 28.3176 8.17375ZM9.99503 8.17375V6.52157C9.99503 5.86915 10.5258 5.3383 11.1782 5.3383H25.704C26.3564 5.3383 26.8872 5.86905 26.8872 6.52157V8.17375C26.8872 8.82616 26.3564 9.35701 25.704 9.35701H11.1783C10.5259 9.35701 9.99503 8.82616 9.99503 8.17375ZM28.9593 33.9637H17.3397C16.9448 33.9637 16.6246 34.2839 16.6246 34.6788C16.6246 35.0737 16.9448 35.3939 17.3397 35.3939H28.9593C29.3542 35.3939 29.6744 35.0737 29.6744 34.6788C29.6744 34.2838 29.3542 33.9637 28.9593 33.9637ZM5.6309 2.01938H31.2514C32.7095 2.01938 33.9833 3.00341 34.3495 4.41235C34.4489 4.79462 34.8393 5.02415 35.2215 4.92468C35.6038 4.8253 35.8332 4.43493 35.7338 4.05266C35.2039 2.0133 33.3607 0.589111 31.2514 0.589111H5.6309C3.07738 0.589111 1 2.66659 1 5.22011V39.9587C1 41.9956 2.30522 43.7721 4.24782 44.3794C4.62719 44.498 5.02663 44.2849 5.14376 43.9103C5.26166 43.5333 5.05152 43.1323 4.67466 43.0144C3.33229 42.5948 2.43036 41.3667 2.43036 39.9588V5.22011C2.43027 3.45524 3.86613 2.01938 5.6309 2.01938ZM28.9593 24.9245H17.3397C16.9448 24.9245 16.6246 25.2447 16.6246 25.6396C16.6246 26.0345 16.9448 26.3547 17.3397 26.3547H28.9593C29.3542 26.3547 29.6744 26.0345 29.6744 25.6396C29.6744 25.2446 29.3542 24.9245 28.9593 24.9245ZM6.54045 25.6396C6.54045 27.3674 7.94611 28.773 9.67393 28.773C11.4018 28.773 12.8073 27.3673 12.8073 25.6396C12.8073 23.9118 11.4017 22.5061 9.67393 22.5061C7.94611 22.5062 6.54045 23.9118 6.54045 25.6396ZM11.3771 25.6396C11.3771 26.5788 10.6131 27.3427 9.67403 27.3427C8.73486 27.3427 7.97081 26.5787 7.97081 25.6396C7.97081 24.7004 8.73486 23.9364 9.67403 23.9364C10.6131 23.9365 11.3771 24.7004 11.3771 25.6396ZM33.8303 38.357L31.5941 40.5931C31.3148 40.8725 31.3148 41.3252 31.5941 41.6045C31.7337 41.7442 31.9168 41.8139 32.0998 41.8139C32.2828 41.8139 32.4659 41.7442 32.6055 41.6045L34.8417 39.3684C35.121 39.0891 35.121 38.6363 34.8417 38.3569C34.5624 38.0777 34.1096 38.0777 33.8303 38.357ZM9.67393 37.8123C11.4018 37.8123 12.8073 36.4066 12.8073 34.6788C12.8073 32.951 11.4017 31.5454 9.67393 31.5454C7.94611 31.5454 6.54045 32.9511 6.54045 34.6788C6.54045 36.4065 7.94611 37.8123 9.67393 37.8123ZM9.67393 32.9756C10.6131 32.9756 11.3771 33.7396 11.3771 34.6787C11.3771 35.6179 10.613 36.3819 9.67393 36.3819C8.73476 36.3819 7.97071 35.6179 7.97071 34.6787C7.97071 33.7396 8.73476 32.9756 9.67393 32.9756ZM45.0731 29.1335L44.0652 28.1256C42.8266 26.8869 40.8215 26.8866 39.5826 28.1256L35.8824 31.8258V7.61279C35.8824 7.21789 35.5622 6.89766 35.1673 6.89766C34.7724 6.89766 34.4521 7.21789 34.4521 7.61279V33.2563L25.9171 41.7914C25.5465 42.1619 25.1896 42.6317 24.9116 43.1595H7.80322C7.40831 43.1595 7.08809 43.4797 7.08809 43.8746C7.08809 44.2695 7.40831 44.5898 7.80322 44.5898H24.373L23.8905 46.2413C23.4099 47.8865 24.6839 49.4108 26.2496 49.4108C26.8377 49.4108 27.0621 49.2503 28.9878 48.7153C29.8574 48.4612 30.7237 47.9657 31.4074 47.2819L45.0731 33.6162C46.309 32.3802 46.309 30.3694 45.0731 29.1335ZM26.5565 47.9353C25.7651 48.1666 25.0323 47.4334 25.2635 46.6423L25.8244 44.7221L28.4767 47.3744L26.5565 47.9353ZM29.8521 46.7271L26.4715 43.3465C26.8633 42.7945 26.4766 43.2858 35.1138 34.617L38.5816 38.0848C29.8834 46.7514 30.4006 46.3379 29.8521 46.7271ZM39.5931 37.0735L36.1253 33.6057L37.8413 31.8897L41.3091 35.3575L39.5931 37.0735ZM44.0618 32.6047L42.3204 34.346L38.8526 30.8782L40.594 29.1369C41.2737 28.4572 42.3739 28.4571 43.0538 29.1369L44.0618 30.1449C44.74 30.8232 44.74 31.9265 44.0618 32.6047ZM8.91509 18.5925L13.1242 14.3833C13.4035 14.104 13.4035 13.6512 13.1242 13.372C12.8448 13.0926 12.3921 13.0926 12.1128 13.372L8.40942 17.0754L7.23493 15.9009C6.95561 15.6216 6.50282 15.6216 6.2236 15.9009C5.94428 16.1802 5.94428 16.633 6.2236 16.9122L7.90375 18.5924C8.18278 18.8715 8.63587 18.8717 8.91509 18.5925ZM28.9593 15.8853H17.3397C16.9448 15.8853 16.6246 16.2055 16.6246 16.6004C16.6246 16.9953 16.9448 17.3155 17.3397 17.3155H28.9593C29.3542 17.3155 29.6744 16.9953 29.6744 16.6004C29.6744 16.2054 29.3542 15.8853 28.9593 15.8853Z"/>
</mask>
<path d="M28.3176 8.17375V6.52157C28.3176 5.0805 27.1452 3.90803 25.7041 3.90803H11.1783C9.73722 3.90803 8.56486 5.0804 8.56486 6.52157V8.17375C8.56486 9.61482 9.73722 10.7873 11.1783 10.7873H25.7041C27.1451 10.7873 28.3176 9.61482 28.3176 8.17375ZM9.99503 8.17375V6.52157C9.99503 5.86915 10.5258 5.3383 11.1782 5.3383H25.704C26.3564 5.3383 26.8872 5.86905 26.8872 6.52157V8.17375C26.8872 8.82616 26.3564 9.35701 25.704 9.35701H11.1783C10.5259 9.35701 9.99503 8.82616 9.99503 8.17375ZM28.9593 33.9637H17.3397C16.9448 33.9637 16.6246 34.2839 16.6246 34.6788C16.6246 35.0737 16.9448 35.3939 17.3397 35.3939H28.9593C29.3542 35.3939 29.6744 35.0737 29.6744 34.6788C29.6744 34.2838 29.3542 33.9637 28.9593 33.9637ZM5.6309 2.01938H31.2514C32.7095 2.01938 33.9833 3.00341 34.3495 4.41235C34.4489 4.79462 34.8393 5.02415 35.2215 4.92468C35.6038 4.8253 35.8332 4.43493 35.7338 4.05266C35.2039 2.0133 33.3607 0.589111 31.2514 0.589111H5.6309C3.07738 0.589111 1 2.66659 1 5.22011V39.9587C1 41.9956 2.30522 43.7721 4.24782 44.3794C4.62719 44.498 5.02663 44.2849 5.14376 43.9103C5.26166 43.5333 5.05152 43.1323 4.67466 43.0144C3.33229 42.5948 2.43036 41.3667 2.43036 39.9588V5.22011C2.43027 3.45524 3.86613 2.01938 5.6309 2.01938ZM28.9593 24.9245H17.3397C16.9448 24.9245 16.6246 25.2447 16.6246 25.6396C16.6246 26.0345 16.9448 26.3547 17.3397 26.3547H28.9593C29.3542 26.3547 29.6744 26.0345 29.6744 25.6396C29.6744 25.2446 29.3542 24.9245 28.9593 24.9245ZM6.54045 25.6396C6.54045 27.3674 7.94611 28.773 9.67393 28.773C11.4018 28.773 12.8073 27.3673 12.8073 25.6396C12.8073 23.9118 11.4017 22.5061 9.67393 22.5061C7.94611 22.5062 6.54045 23.9118 6.54045 25.6396ZM11.3771 25.6396C11.3771 26.5788 10.6131 27.3427 9.67403 27.3427C8.73486 27.3427 7.97081 26.5787 7.97081 25.6396C7.97081 24.7004 8.73486 23.9364 9.67403 23.9364C10.6131 23.9365 11.3771 24.7004 11.3771 25.6396ZM33.8303 38.357L31.5941 40.5931C31.3148 40.8725 31.3148 41.3252 31.5941 41.6045C31.7337 41.7442 31.9168 41.8139 32.0998 41.8139C32.2828 41.8139 32.4659 41.7442 32.6055 41.6045L34.8417 39.3684C35.121 39.0891 35.121 38.6363 34.8417 38.3569C34.5624 38.0777 34.1096 38.0777 33.8303 38.357ZM9.67393 37.8123C11.4018 37.8123 12.8073 36.4066 12.8073 34.6788C12.8073 32.951 11.4017 31.5454 9.67393 31.5454C7.94611 31.5454 6.54045 32.9511 6.54045 34.6788C6.54045 36.4065 7.94611 37.8123 9.67393 37.8123ZM9.67393 32.9756C10.6131 32.9756 11.3771 33.7396 11.3771 34.6787C11.3771 35.6179 10.613 36.3819 9.67393 36.3819C8.73476 36.3819 7.97071 35.6179 7.97071 34.6787C7.97071 33.7396 8.73476 32.9756 9.67393 32.9756ZM45.0731 29.1335L44.0652 28.1256C42.8266 26.8869 40.8215 26.8866 39.5826 28.1256L35.8824 31.8258V7.61279C35.8824 7.21789 35.5622 6.89766 35.1673 6.89766C34.7724 6.89766 34.4521 7.21789 34.4521 7.61279V33.2563L25.9171 41.7914C25.5465 42.1619 25.1896 42.6317 24.9116 43.1595H7.80322C7.40831 43.1595 7.08809 43.4797 7.08809 43.8746C7.08809 44.2695 7.40831 44.5898 7.80322 44.5898H24.373L23.8905 46.2413C23.4099 47.8865 24.6839 49.4108 26.2496 49.4108C26.8377 49.4108 27.0621 49.2503 28.9878 48.7153C29.8574 48.4612 30.7237 47.9657 31.4074 47.2819L45.0731 33.6162C46.309 32.3802 46.309 30.3694 45.0731 29.1335ZM26.5565 47.9353C25.7651 48.1666 25.0323 47.4334 25.2635 46.6423L25.8244 44.7221L28.4767 47.3744L26.5565 47.9353ZM29.8521 46.7271L26.4715 43.3465C26.8633 42.7945 26.4766 43.2858 35.1138 34.617L38.5816 38.0848C29.8834 46.7514 30.4006 46.3379 29.8521 46.7271ZM39.5931 37.0735L36.1253 33.6057L37.8413 31.8897L41.3091 35.3575L39.5931 37.0735ZM44.0618 32.6047L42.3204 34.346L38.8526 30.8782L40.594 29.1369C41.2737 28.4572 42.3739 28.4571 43.0538 29.1369L44.0618 30.1449C44.74 30.8232 44.74 31.9265 44.0618 32.6047ZM8.91509 18.5925L13.1242 14.3833C13.4035 14.104 13.4035 13.6512 13.1242 13.372C12.8448 13.0926 12.3921 13.0926 12.1128 13.372L8.40942 17.0754L7.23493 15.9009C6.95561 15.6216 6.50282 15.6216 6.2236 15.9009C5.94428 16.1802 5.94428 16.633 6.2236 16.9122L7.90375 18.5924C8.18278 18.8715 8.63587 18.8717 8.91509 18.5925ZM28.9593 15.8853H17.3397C16.9448 15.8853 16.6246 16.2055 16.6246 16.6004C16.6246 16.9953 16.9448 17.3155 17.3397 17.3155H28.9593C29.3542 17.3155 29.6744 16.9953 29.6744 16.6004C29.6744 16.2054 29.3542 15.8853 28.9593 15.8853Z" fill="#234FD3"/>
<path d="M28.3176 8.17375V6.52157C28.3176 5.0805 27.1452 3.90803 25.7041 3.90803H11.1783C9.73722 3.90803 8.56486 5.0804 8.56486 6.52157V8.17375C8.56486 9.61482 9.73722 10.7873 11.1783 10.7873H25.7041C27.1451 10.7873 28.3176 9.61482 28.3176 8.17375ZM9.99503 8.17375V6.52157C9.99503 5.86915 10.5258 5.3383 11.1782 5.3383H25.704C26.3564 5.3383 26.8872 5.86905 26.8872 6.52157V8.17375C26.8872 8.82616 26.3564 9.35701 25.704 9.35701H11.1783C10.5259 9.35701 9.99503 8.82616 9.99503 8.17375ZM28.9593 33.9637H17.3397C16.9448 33.9637 16.6246 34.2839 16.6246 34.6788C16.6246 35.0737 16.9448 35.3939 17.3397 35.3939H28.9593C29.3542 35.3939 29.6744 35.0737 29.6744 34.6788C29.6744 34.2838 29.3542 33.9637 28.9593 33.9637ZM5.6309 2.01938H31.2514C32.7095 2.01938 33.9833 3.00341 34.3495 4.41235C34.4489 4.79462 34.8393 5.02415 35.2215 4.92468C35.6038 4.8253 35.8332 4.43493 35.7338 4.05266C35.2039 2.0133 33.3607 0.589111 31.2514 0.589111H5.6309C3.07738 0.589111 1 2.66659 1 5.22011V39.9587C1 41.9956 2.30522 43.7721 4.24782 44.3794C4.62719 44.498 5.02663 44.2849 5.14376 43.9103C5.26166 43.5333 5.05152 43.1323 4.67466 43.0144C3.33229 42.5948 2.43036 41.3667 2.43036 39.9588V5.22011C2.43027 3.45524 3.86613 2.01938 5.6309 2.01938ZM28.9593 24.9245H17.3397C16.9448 24.9245 16.6246 25.2447 16.6246 25.6396C16.6246 26.0345 16.9448 26.3547 17.3397 26.3547H28.9593C29.3542 26.3547 29.6744 26.0345 29.6744 25.6396C29.6744 25.2446 29.3542 24.9245 28.9593 24.9245ZM6.54045 25.6396C6.54045 27.3674 7.94611 28.773 9.67393 28.773C11.4018 28.773 12.8073 27.3673 12.8073 25.6396C12.8073 23.9118 11.4017 22.5061 9.67393 22.5061C7.94611 22.5062 6.54045 23.9118 6.54045 25.6396ZM11.3771 25.6396C11.3771 26.5788 10.6131 27.3427 9.67403 27.3427C8.73486 27.3427 7.97081 26.5787 7.97081 25.6396C7.97081 24.7004 8.73486 23.9364 9.67403 23.9364C10.6131 23.9365 11.3771 24.7004 11.3771 25.6396ZM33.8303 38.357L31.5941 40.5931C31.3148 40.8725 31.3148 41.3252 31.5941 41.6045C31.7337 41.7442 31.9168 41.8139 32.0998 41.8139C32.2828 41.8139 32.4659 41.7442 32.6055 41.6045L34.8417 39.3684C35.121 39.0891 35.121 38.6363 34.8417 38.3569C34.5624 38.0777 34.1096 38.0777 33.8303 38.357ZM9.67393 37.8123C11.4018 37.8123 12.8073 36.4066 12.8073 34.6788C12.8073 32.951 11.4017 31.5454 9.67393 31.5454C7.94611 31.5454 6.54045 32.9511 6.54045 34.6788C6.54045 36.4065 7.94611 37.8123 9.67393 37.8123ZM9.67393 32.9756C10.6131 32.9756 11.3771 33.7396 11.3771 34.6787C11.3771 35.6179 10.613 36.3819 9.67393 36.3819C8.73476 36.3819 7.97071 35.6179 7.97071 34.6787C7.97071 33.7396 8.73476 32.9756 9.67393 32.9756ZM45.0731 29.1335L44.0652 28.1256C42.8266 26.8869 40.8215 26.8866 39.5826 28.1256L35.8824 31.8258V7.61279C35.8824 7.21789 35.5622 6.89766 35.1673 6.89766C34.7724 6.89766 34.4521 7.21789 34.4521 7.61279V33.2563L25.9171 41.7914C25.5465 42.1619 25.1896 42.6317 24.9116 43.1595H7.80322C7.40831 43.1595 7.08809 43.4797 7.08809 43.8746C7.08809 44.2695 7.40831 44.5898 7.80322 44.5898H24.373L23.8905 46.2413C23.4099 47.8865 24.6839 49.4108 26.2496 49.4108C26.8377 49.4108 27.0621 49.2503 28.9878 48.7153C29.8574 48.4612 30.7237 47.9657 31.4074 47.2819L45.0731 33.6162C46.309 32.3802 46.309 30.3694 45.0731 29.1335ZM26.5565 47.9353C25.7651 48.1666 25.0323 47.4334 25.2635 46.6423L25.8244 44.7221L28.4767 47.3744L26.5565 47.9353ZM29.8521 46.7271L26.4715 43.3465C26.8633 42.7945 26.4766 43.2858 35.1138 34.617L38.5816 38.0848C29.8834 46.7514 30.4006 46.3379 29.8521 46.7271ZM39.5931 37.0735L36.1253 33.6057L37.8413 31.8897L41.3091 35.3575L39.5931 37.0735ZM44.0618 32.6047L42.3204 34.346L38.8526 30.8782L40.594 29.1369C41.2737 28.4572 42.3739 28.4571 43.0538 29.1369L44.0618 30.1449C44.74 30.8232 44.74 31.9265 44.0618 32.6047ZM8.91509 18.5925L13.1242 14.3833C13.4035 14.104 13.4035 13.6512 13.1242 13.372C12.8448 13.0926 12.3921 13.0926 12.1128 13.372L8.40942 17.0754L7.23493 15.9009C6.95561 15.6216 6.50282 15.6216 6.2236 15.9009C5.94428 16.1802 5.94428 16.633 6.2236 16.9122L7.90375 18.5924C8.18278 18.8715 8.63587 18.8717 8.91509 18.5925ZM28.9593 15.8853H17.3397C16.9448 15.8853 16.6246 16.2055 16.6246 16.6004C16.6246 16.9953 16.9448 17.3155 17.3397 17.3155H28.9593C29.3542 17.3155 29.6744 16.9953 29.6744 16.6004C29.6744 16.2054 29.3542 15.8853 28.9593 15.8853Z" stroke="#234FD3" stroke-width="0.4" mask="url(#path-1-outside-1_617_2007)"/>
</svg>
