<svg width="12" height="12" viewBox="0 0 12 12" fill="none" xmlns="http://www.w3.org/2000/svg">
<path d="M6.1 8.84998C5.95 8.84998 5.85 8.79998 5.75 8.69998L3.65 6.59998C3.45 6.39998 3.45 6.09998 3.65 5.89998C3.85 5.69998 4.15 5.69998 4.35 5.89998L6.1 7.64998L10 3.74998C10.2 3.54998 10.5 3.54998 10.7 3.74998C10.9 3.94998 10.9 4.24998 10.7 4.44998L6.45 8.69998C6.4 8.79998 6.25 8.84998 6.1 8.84998Z" fill="#FF3957"/>
<path d="M3.6 8.84998C3.45 8.84998 3.35 8.79998 3.25 8.69998L1.15 6.59998C0.95 6.39998 0.95 6.09998 1.15 5.89998C1.35 5.69998 1.65 5.69998 1.85 5.89998L3.95 7.99998C4.15 8.19998 4.15 8.49998 3.95 8.69998C3.9 8.79998 3.75 8.84998 3.6 8.84998ZM6.25 6.24998C6.1 6.24998 6 6.19998 5.9 6.09998C5.7 5.89998 5.7 5.59998 5.9 5.39998L7.5 3.74998C7.7 3.54998 8 3.54998 8.2 3.74998C8.4 3.94998 8.4 4.24998 8.2 4.44998L6.6 6.09998C6.5 6.19998 6.4 6.24998 6.25 6.24998Z" fill="#FF3957"/>
</svg>
