<svg width="41" height="52" viewBox="0 0 41 52" fill="none" xmlns="http://www.w3.org/2000/svg">
<path d="M40.1494 6.7605C40.1494 4.66478 38.4445 2.96012 36.349 2.96012H27.9727C27.8243 1.83002 26.8643 0.95083 25.6922 0.95083H19.1649C17.9927 0.95083 17.0328 1.83002 16.8844 2.96012H8.51216C6.41675 2.96012 4.71177 4.66478 4.71177 6.7605V10.4842H2.7116C1.50181 10.4842 0.517969 11.468 0.517969 12.6776V20.9188C0.517969 22.1284 1.50181 23.1122 2.7116 23.1122H4.71167V47.2539C4.71167 49.347 6.41685 51.0492 8.51206 51.0492H36.349C38.4442 51.0492 40.1493 49.347 40.1493 47.2539L40.1494 6.7605ZM17.9369 3.26105C17.9369 2.58404 18.488 2.033 19.1649 2.033H25.6922C26.3692 2.033 26.9203 2.58412 26.9203 3.26105C26.9203 4.46291 27.9074 5.57138 29.2306 5.57138H29.9344C30.6776 5.57138 31.2826 6.17647 31.2826 6.91961V6.91992V6.92023V6.92056V6.92089V6.92123V6.92157V6.92192V6.92228V6.92264V6.92301V6.92339V6.92377V6.92416V6.92455V6.92496V6.92536V6.92578V6.9262V6.92663V6.92706V6.9275V6.92794V6.92839V6.92885V6.92931V6.92978V6.93026V6.93074V6.93122V6.93172V6.93221V6.93272V6.93323V6.93374V6.93427V6.93479V6.93532V6.93586V6.93641V6.93695V6.93751V6.93807V6.93863V6.93921V6.93978V6.94036V6.94095V6.94154V6.94214V6.94274V6.94335V6.94396V6.94458V6.9452V6.94583V6.94646V6.9471V6.94774V6.94839V6.94905V6.9497V6.95037V6.95103V6.95171V6.95238V6.95306V6.95375V6.95444V6.95514V6.95584V6.95654V6.95725V6.95796V6.95868V6.95941V6.96013V6.96086V6.9616V6.96234V6.96308V6.96383V6.96459V6.96534V6.9661V6.96687V6.96764V6.96841V6.96919V6.96997V6.97076V6.97155V6.97234V6.97314V6.97394V6.97474V6.97555V6.97636V6.97718V6.978V6.97882V6.97965V6.98048V6.98132V6.98215V6.98299V6.98384V6.98469V6.98554V6.98639V6.98725V6.98811V6.98898V6.98985V6.99072V6.99159V6.99247V6.99335V6.99424V6.99512V6.99601V6.99691V6.9978V6.9987V6.9996V7.00051V7.00142V7.00233V7.00324V7.00416V7.00508V7.006V7.00692V7.00785V7.00878V7.00971V7.01064V7.01158V7.01252V7.01346V7.01441V7.01535V7.0163V7.01726V7.01821V7.01917V7.02012V7.02108V7.02205V7.02301V7.02398V7.02495V7.02592V7.02689V7.02787V7.02884V7.02982V7.0308V7.03179V7.03277V7.03376V7.03475V7.03574V7.03673V7.03772V7.03872V7.03971V7.04071V7.04171V7.04271V7.04372V7.04472V7.04572V7.04673V7.04774V7.04875V7.04976V7.05077V7.05179V7.0528V7.05382V7.05483V7.05585V7.05687V7.05789V7.05891V7.05994V7.06096V7.06198V7.06301V7.06404V7.06506V7.06609V7.06712V7.06815V7.06918V7.07021V7.07124V7.07227V7.0733V7.07434V7.07537V7.07641V7.07744V7.07847V7.07951V7.08055V7.08158V7.08262V7.08366V7.08469V7.08573V7.08677V7.08781V7.08884V7.08988V7.09092V7.09196V7.09299V7.09403V7.09507V7.09611V7.09715V7.09818V7.09922V7.10026V7.10129V7.10233V7.10337V7.1044V7.10544V7.10647V7.10751V7.10854V7.10958V7.11061V7.11164V7.11268V7.11371V7.11474V7.11577V7.1168V7.11783V7.11885V7.11988V7.12091V7.12193V7.12296V7.12398V7.12501V7.12603V7.12705V7.12807V7.12909V7.1301V7.13112V7.13214V7.13315V7.13416V7.13517V7.13618V7.13719V7.1382V7.13921V7.14021V7.14121V7.14222V7.14322V7.14422V7.14521V7.14621V7.1472V7.14819V7.14919V7.15017V7.15116V7.15215V7.15313V7.15411V7.15509V7.15607V7.15705V7.15802V7.15899V7.15996V7.16093V7.16189V7.16286V7.16382V7.16478V7.16574V7.16669V7.16764V7.16859V7.16954V7.17049V7.17143V7.17237V7.17331V7.17424V7.17518V7.17611V7.17703V7.17796V7.17888V7.1798V7.18072V7.18163V7.18255V7.18345V7.18436V7.18526V7.18616V7.18706V7.18796V7.18885V7.18974V7.19062V7.1915V7.19238V7.19326V7.19413V7.195V7.19587V7.19673V7.19759V7.19844V7.1993V7.20015V7.20099V7.20184V7.20267V7.20351V7.20434V7.20517V7.206V7.20682V7.20763V7.20845V7.20926V7.21006V7.21087V7.21167V7.21246V7.21325V7.21404V7.21482V7.2156V7.21638V7.21715V7.21791V7.21868V7.21943V7.22019V7.22094V7.22169V7.22243V7.22316V7.2239V7.22463V7.22535V7.22607V7.22679V7.2275V7.2282V7.22891V7.2296V7.2303V7.23098V7.23167V7.23235V7.23302V7.23369V7.23435V7.23501V7.23567V7.23632V7.23696V7.2376V7.23824V7.23887V7.23949V7.24011V7.24073V7.24134V7.24194V7.24254V7.24313V7.24372V7.24431V7.24488V7.24546V7.24602V7.24659V7.24714V7.24769V7.24824V7.24878V7.24931V7.24984V7.25037V7.25088V7.2514V7.2519V7.2524V7.2529V7.25339V7.25387V7.25435V7.25482V7.25528V7.25574V7.25619V7.25664V7.25708V7.25752V7.25795V7.25837V7.25879V7.2592V7.2596V7.26V7.26039V7.26078V7.26115V7.26153V7.26189V7.26225V7.26261V7.26295V7.26329V7.26362V7.26395V7.26427V7.26458V7.26489V7.26519V7.26548V7.26577V7.26589C31.2826 7.68238 30.9433 8.02161 30.5272 8.02161H14.3305C13.9137 8.02161 13.5745 7.68232 13.5745 7.26589V6.91961C13.5745 6.17638 14.1796 5.57138 14.9227 5.57138H15.6271C16.9336 5.57138 17.9369 4.48147 17.9369 3.26105ZM26.1378 10.4842H9.27736V7.53108H12.5193C12.6483 8.41765 13.4065 9.10398 14.3305 9.10398H30.5272C31.4508 9.10398 32.2089 8.4177 32.3378 7.53108H35.5839V46.4837H9.27736V23.1122H26.1378C27.3472 23.1122 28.331 22.1284 28.331 20.9188V12.6776C28.331 11.4681 27.3472 10.4842 26.1378 10.4842ZM5.79394 6.7605C5.79394 5.26179 7.01373 4.04228 8.51216 4.04228H16.5664C16.3417 4.3149 16.0052 4.48911 15.6271 4.48911H14.9228C13.7436 4.48911 12.7686 5.33534 12.5482 6.44871H8.73628C8.43746 6.44871 8.19519 6.69113 8.19519 6.9898V10.4841H5.79404L5.79394 6.7605ZM2.7116 22.03C2.09878 22.03 1.60014 21.5313 1.60014 20.9188V12.6776C1.60014 12.0651 2.09877 11.5665 2.7116 11.5665H26.1377C26.75 11.5665 27.2487 12.0651 27.2487 12.6776V20.9188C27.2487 21.5314 26.75 22.03 26.1377 22.03H2.7116ZM39.0673 47.2539C39.0673 48.7494 37.8477 49.9669 36.349 49.9669H8.51216C7.01347 49.9669 5.79394 48.7494 5.79394 47.2539V23.1122H8.19509V47.0248C8.19509 47.3236 8.43751 47.5659 8.73618 47.5659H36.1249C36.4238 47.5659 36.666 47.3235 36.666 47.0248V6.9899C36.666 6.69108 36.4236 6.44881 36.1249 6.44881H32.3089C32.0886 5.33543 31.1136 4.48921 29.9343 4.48921H29.2305C28.8524 4.48921 28.5157 4.31498 28.2909 4.04238H36.349C37.8475 4.04238 39.0673 5.26189 39.0673 6.7606V47.2539Z" fill="#234FD3" stroke="#234FD3" stroke-width="0.3"/>
<path d="M15.6601 24.7487C13.1088 24.7487 11.0336 26.8241 11.0336 29.3753C11.0336 31.9256 13.1088 34.0002 15.6601 34.0002C18.2103 34.0002 20.2849 31.9256 20.2849 29.3753C20.2849 26.8242 18.2103 24.7487 15.6601 24.7487ZM15.6601 32.918C13.7058 32.918 12.1159 31.3285 12.1159 29.3753C12.1159 27.4211 13.7059 25.8309 15.6601 25.8309C17.6132 25.8309 19.2028 27.4211 19.2028 29.3753C19.2028 31.3286 17.6133 32.918 15.6601 32.918Z" fill="#234FD3" stroke="#234FD3" stroke-width="0.3"/>
<path d="M16.9839 27.8349L16.984 27.8349C17.1953 27.6236 17.5378 27.6235 17.749 27.8349C17.9604 28.0463 17.9604 28.3887 17.749 28.6001L15.436 30.9136L15.436 30.9137C15.2246 31.1251 14.8822 31.1251 14.6708 30.9137C14.6708 30.9137 14.6708 30.9137 14.6708 30.9137L13.575 29.8183L13.5749 29.8183L13.681 29.7122C13.5282 29.5597 13.5282 29.3118 13.681 29.1591C13.8338 29.0063 14.0812 29.0063 14.234 29.1591L16.9839 27.8349ZM16.9839 27.8349L15.0534 29.7659L14.3401 29.0531M16.9839 27.8349L14.3401 29.0531M14.3401 29.0531C14.3401 29.053 14.3401 29.053 14.3401 29.053L14.3401 29.0531Z" fill="#234FD3" stroke="#234FD3" stroke-width="0.3"/>
<path d="M22.1391 27.1137C22.1391 27.4126 22.3815 27.6548 22.6801 27.6548H33.2866C33.5854 27.6548 33.8277 27.4124 33.8277 27.1137C33.8277 26.8149 33.5853 26.5727 33.2866 26.5727H22.6801C22.3815 26.5727 22.1391 26.8149 22.1391 27.1137Z" fill="#234FD3" stroke="#234FD3" stroke-width="0.3"/>
<path d="M33.2866 28.8329H22.6801C22.3813 28.8329 22.1391 29.0753 22.1391 29.374C22.1391 29.6727 22.3815 29.9151 22.6801 29.9151H33.2866C33.5854 29.9151 33.8277 29.6727 33.8277 29.374C33.8277 29.0753 33.5853 28.8329 33.2866 28.8329Z" fill="#234FD3" stroke="#234FD3" stroke-width="0.3"/>
<path d="M27.2758 32.1761H22.6801C22.3814 32.1761 22.139 31.9339 22.1391 31.635L27.2758 32.1761ZM27.2758 32.1761C27.5746 32.1761 27.8169 31.9337 27.8169 31.635M27.2758 32.1761L27.8169 31.635M27.8169 31.635C27.8169 31.3362 27.5745 31.0939 27.2758 31.0939M27.8169 31.635L27.2758 31.0939M27.2758 31.0939H22.6801M27.2758 31.0939H22.6801M22.6801 31.0939C22.3814 31.0939 22.1391 31.3363 22.1391 31.6349L22.6801 31.0939Z" fill="#234FD3" stroke="#234FD3" stroke-width="0.3"/>
<path d="M15.6601 35.4887C13.1088 35.4887 11.0336 37.5638 11.0336 40.1151C11.0336 42.6654 13.1088 44.74 15.6601 44.74C18.2103 44.74 20.2849 42.6654 20.2849 40.1151C20.2849 37.5639 18.2103 35.4887 15.6601 35.4887ZM15.6601 43.6577C13.7058 43.6577 12.1159 42.0682 12.1159 40.115C12.1159 38.1608 13.7058 36.5708 15.6601 36.5708C17.6132 36.5708 19.2028 38.1608 19.2028 40.115C19.2028 42.0683 17.6133 43.6577 15.6601 43.6577Z" fill="#234FD3" stroke="#234FD3" stroke-width="0.3"/>
<path d="M16.9839 38.575L16.9839 38.575L15.0534 40.5059L14.3401 39.7926C14.1287 39.5812 13.7863 39.5812 13.5749 39.7926C13.3636 40.0039 13.3636 40.3464 13.5749 40.5578L13.5749 40.5578L14.6708 41.6537C14.8822 41.8652 15.2247 41.865 15.436 41.6537L15.436 41.6537L17.749 39.3402C17.749 39.3402 17.749 39.3402 17.7491 39.3402C17.9605 39.1288 17.9604 38.7863 17.749 38.575C17.5378 38.3635 17.1953 38.3636 16.9839 38.575Z" fill="#234FD3" stroke="#234FD3" stroke-width="0.3"/>
<path d="M33.2866 37.3126H22.6801C22.3813 37.3126 22.1391 37.5551 22.1391 37.8537C22.1391 38.1525 22.3815 38.3948 22.6801 38.3948H33.2866C33.5854 38.3948 33.8277 38.1524 33.8277 37.8537C33.8277 37.5549 33.5853 37.3126 33.2866 37.3126Z" fill="#234FD3" stroke="#234FD3" stroke-width="0.3"/>
<path d="M33.2866 39.5731H22.6801C22.3813 39.5731 22.1391 39.8156 22.1391 40.1142C22.1391 40.4129 22.3815 40.6553 22.6801 40.6553H33.2866C33.5854 40.6553 33.8277 40.4129 33.8277 40.1142C33.8277 39.8155 33.5853 39.5731 33.2866 39.5731Z" fill="#234FD3" stroke="#234FD3" stroke-width="0.3"/>
<path d="M22.6801 41.8336H27.2758C27.5745 41.8336 27.817 42.076 27.8169 42.3747L22.6801 41.8336ZM22.6801 41.8336C22.3813 41.8336 22.1391 42.0761 22.1391 42.3747M22.6801 41.8336L22.1391 42.3747M22.1391 42.3747C22.1391 42.6735 22.3815 42.9158 22.6801 42.9158M22.1391 42.3747L22.6801 42.9158M22.6801 42.9158H27.2758M22.6801 42.9158H27.2758M27.2758 42.9158C27.5746 42.9158 27.8168 42.6734 27.8169 42.3748L27.2758 42.9158Z" fill="#234FD3" stroke="#234FD3" stroke-width="0.3"/>
<path d="M7.40665 12.1728C4.85545 12.1728 2.77969 14.2482 2.77969 16.7994C2.77969 19.3497 4.85551 21.4241 7.40665 21.4241C9.95688 21.4241 12.031 19.3496 12.031 16.7994C12.031 14.2483 9.95695 12.1728 7.40665 12.1728ZM7.40665 20.3418C5.45233 20.3418 3.86196 18.7525 3.86196 16.7994C3.86196 14.8452 5.45242 13.2549 7.40665 13.2549C9.35978 13.2549 10.9489 14.8451 10.9489 16.7994C10.9489 18.7527 9.35987 20.3418 7.40665 20.3418Z" fill="#234FD3" stroke="#234FD3" stroke-width="0.3"/>
<path d="M6.79514 17.19L8.72612 15.259C8.93746 15.0477 9.27995 15.0476 9.49123 15.2591L6.79514 17.19ZM6.79514 17.19L6.08229 16.477L6.08218 16.4769C5.87102 16.2661 5.52869 16.2651 5.31704 16.477L6.79514 17.19Z" fill="#234FD3" stroke="#234FD3" stroke-width="0.3"/>
<path d="M25.0288 13.997H14.4223C14.1235 13.997 13.8812 14.2394 13.8812 14.5381C13.8812 14.8369 14.1237 15.0791 14.4223 15.0791H25.0288C25.3276 15.0791 25.5699 14.8367 25.5699 14.5381C25.5699 14.2394 25.3275 13.997 25.0288 13.997Z" fill="#234FD3" stroke="#234FD3" stroke-width="0.3"/>
<path d="M25.0288 16.2575H14.4223C14.1235 16.2575 13.8812 16.4999 13.8812 16.7986C13.8812 17.0974 14.1237 17.3396 14.4223 17.3396H25.0288C25.3276 17.3396 25.5699 17.0972 25.5699 16.7986C25.5699 16.4997 25.3275 16.2575 25.0288 16.2575Z" fill="#234FD3" stroke="#234FD3" stroke-width="0.3"/>
<path d="M14.4223 18.518H19.0175C19.3162 18.518 19.5587 18.7603 19.5586 19.0591L14.4223 18.518ZM14.4223 18.518C14.1235 18.518 13.8812 18.7604 13.8812 19.0591M14.4223 18.518L13.8812 19.0591M13.8812 19.0591C13.8812 19.3579 14.1237 19.6001 14.4223 19.6001M13.8812 19.0591L14.4223 19.6001M14.4223 19.6001H19.0175M14.4223 19.6001H19.0175M19.0175 19.6001C19.3163 19.6001 19.5585 19.3578 19.5586 19.0591L19.0175 19.6001Z" fill="#234FD3" stroke="#234FD3" stroke-width="0.3"/>
</svg>
