<svg width="18" height="21" viewBox="0 0 18 21" fill="none" xmlns="http://www.w3.org/2000/svg">
<path d="M17.8483 11.8268L16.276 6.17002C15.8152 4.51283 14.8137 3.05724 13.4306 2.03461C12.0475 1.01198 10.3623 0.481007 8.64282 0.526089C6.92334 0.57117 5.26827 1.18972 3.94068 2.28342C2.6131 3.37711 1.6892 4.88319 1.31583 6.56225L0.098589 12.0361C-0.0358656 12.6409 -0.032757 13.2683 0.107685 13.8717C0.248128 14.4752 0.522318 15.0395 0.910012 15.5228C1.29771 16.0061 1.78901 16.3962 2.34764 16.6642C2.90627 16.9323 3.51797 17.0714 4.13757 17.0714H5.0594C5.24932 18.0067 5.75675 18.8476 6.49571 19.4516C7.23467 20.0556 8.15972 20.3855 9.11411 20.3855C10.0685 20.3855 10.9935 20.0556 11.7325 19.4516C12.4715 18.8476 12.9789 18.0067 13.1688 17.0714H13.8623C14.5001 17.0714 15.1293 16.924 15.7007 16.6406C16.2722 16.3573 16.7703 15.9456 17.1564 15.4378C17.5424 14.93 17.8057 14.3399 17.9259 13.7135C18.0461 13.087 18.0198 12.4413 17.8491 11.8268H17.8483ZM9.11411 18.7264C8.6025 18.7243 8.10405 18.5641 7.68693 18.2679C7.26982 17.9716 6.95442 17.5537 6.78389 17.0714H11.4443C11.2738 17.5537 10.9584 17.9716 10.5413 18.2679C10.1242 18.5641 9.62571 18.7243 9.11411 18.7264ZM15.8383 14.4358C15.6077 14.7417 15.309 14.9896 14.9658 15.1599C14.6226 15.3301 14.2445 15.4179 13.8614 15.4164H4.13757C3.76585 15.4163 3.39889 15.3328 3.06377 15.172C2.72866 15.0111 2.43394 14.777 2.20138 14.4871C1.96882 14.1971 1.80435 13.8586 1.72011 13.4965C1.63587 13.1344 1.63402 12.7581 1.71468 12.3952L2.93109 6.92056C3.22432 5.60171 3.94999 4.41872 4.99275 3.55966C6.03551 2.70059 7.33552 2.21475 8.68611 2.17937C10.0367 2.14399 11.3604 2.5611 12.4467 3.36439C13.533 4.16767 14.3196 5.31104 14.6815 6.61273L16.2537 12.2695C16.3576 12.638 16.3741 13.0257 16.302 13.4017C16.2299 13.7778 16.0711 14.1319 15.8383 14.4358Z" fill="#71717A"/>
</svg>
