<svg width="194" height="155" viewBox="0 0 194 155" fill="none" xmlns="http://www.w3.org/2000/svg">
<path opacity="0.2" d="M168.344 26.8443C186.412 49.6503 188.402 90.2112 171.253 117.15C154.257 143.935 118.122 156.946 86.8864 154.037C55.6507 151.282 29.1616 132.609 16.2999 108.272C3.43815 83.9358 4.20373 53.9359 17.3717 33.885C30.5397 13.8341 56.2632 3.88522 86.2739 1.43626C116.132 -1.0127 150.276 4.03829 168.344 26.8443Z" fill="#C1D0FF"/>
<circle opacity="0.5" cx="188.253" cy="114.865" r="5.31563" fill="#527DFF"/>
<circle opacity="0.5" cx="11.1313" cy="136.719" r="10.6313" fill="#527DFF"/>
<circle opacity="0.5" cx="14.0836" cy="15.6402" r="4.13438" fill="#527DFF"/>
<path d="M150.638 39.3522C164.341 56.5444 165.85 87.1212 152.845 107.429C139.955 127.621 112.551 137.429 88.8618 135.236C65.173 133.159 45.084 119.083 35.3298 100.736C25.5755 82.3904 26.1562 59.7752 36.1426 44.6599C46.1291 29.5446 65.6375 22.0446 88.3973 20.1985C111.041 18.3524 136.936 22.16 150.638 39.3522Z" fill="#527DFF"/>
<path d="M105.242 67.4142C102.273 64.4452 97.4422 64.4453 94.4733 67.4142C92.4455 69.442 91.7414 72.431 92.6191 75.1423L84.0465 83.7148C83.9167 83.8446 83.8438 84.0207 83.8438 84.2043V88.1203C83.8438 88.5026 84.1537 88.8125 84.536 88.8125H88.4519C88.6356 88.8125 88.8116 88.7395 88.9414 88.6097L89.9206 87.6306C90.0701 87.481 90.1431 87.2712 90.1187 87.0611L89.9965 86.0098L91.4539 85.8725C91.7848 85.8413 92.0469 85.5792 92.0781 85.2483L92.2155 83.7908L93.2669 83.9129C93.4632 83.9359 93.6597 83.8737 93.8072 83.7423C93.9547 83.611 94.0391 83.4229 94.0391 83.2253V81.9362H95.3048C95.487 81.9362 95.6618 81.8643 95.7914 81.7363L97.5113 80.0363C100.223 80.9153 103.214 80.2113 105.242 78.1829C108.211 75.214 108.211 70.3831 105.242 67.4142ZM104.263 77.204C102.516 78.9512 99.895 79.4965 97.5861 78.5935C97.3313 78.4939 97.0418 78.5536 96.8473 78.7459L95.0204 80.5517H93.3468C92.9645 80.5517 92.6546 80.8617 92.6546 81.244V82.448L91.6727 82.3338C91.4877 82.3124 91.3019 82.3663 91.1572 82.4834C91.0125 82.6005 90.921 82.771 90.9035 82.9564L90.7534 84.5479L89.1621 84.6978C88.9767 84.7153 88.8062 84.8067 88.689 84.9515C88.5719 85.0962 88.5179 85.282 88.5394 85.467L88.7047 86.8883L88.1651 87.4281H85.2282V84.4911L93.9074 75.8119C94.1019 75.6174 94.1628 75.3263 94.0627 75.0702C93.1596 72.7613 93.705 70.1405 95.4522 68.3932C97.8814 65.9641 101.834 65.9641 104.263 68.3932C106.692 70.8223 106.692 74.7749 104.263 77.204Z" fill="white" stroke="white" stroke-width="0.39375"/>
<path d="M103.279 69.3729C102.469 68.5632 101.151 68.5632 100.342 69.3729C99.5319 70.1826 99.5319 71.5001 100.342 72.3099C101.151 73.1196 102.469 73.1197 103.279 72.3099C104.088 71.5001 104.088 70.1826 103.279 69.3729ZM102.3 71.3309C102.03 71.6008 101.591 71.6008 101.321 71.3309C101.051 71.061 101.051 70.6219 101.321 70.3519C101.591 70.0814 102.029 70.0814 102.3 70.3519C102.57 70.6225 102.57 71.0603 102.3 71.3309Z" fill="white"/>
<path fill-rule="evenodd" clip-rule="evenodd" d="M95.6547 102.463C109.355 102.463 120.461 91.3568 120.461 77.6566C120.461 63.9565 109.355 52.8504 95.6547 52.8504C81.9546 52.8504 70.8484 63.9565 70.8484 77.6566C70.8484 91.3568 81.9546 102.463 95.6547 102.463ZM95.6547 106.007C111.312 106.007 124.005 93.3139 124.005 77.6566C124.005 61.9994 111.312 49.3066 95.6547 49.3066C79.9974 49.3066 67.3047 61.9994 67.3047 77.6566C67.3047 93.3139 79.9974 106.007 95.6547 106.007Z" fill="white"/>
</svg>
