<svg width="96" height="92" viewBox="0 0 96 92" fill="none" xmlns="http://www.w3.org/2000/svg">
<path opacity="0.4" d="M47.886 1.62138C47.886 0.994509 48.3943 0.48496 49.021 0.499429C58.0032 0.706812 66.7483 3.37204 74.2317 8.19533C82.0301 13.2216 88.1082 20.3656 91.6973 28.7239C95.2865 37.0823 96.2256 46.2796 94.3959 55.1527C92.5661 64.0259 88.0497 72.1764 81.4177 78.5736C74.7858 84.9708 66.3362 89.3274 57.1374 91.0924C47.9386 92.8574 38.4038 91.9515 29.7387 88.4894C21.0736 85.0272 13.6674 79.1643 8.45674 71.642C3.47219 64.4461 0.710834 56.041 0.480531 47.4055C0.463206 46.7559 0.991673 46.2288 1.64155 46.2288C2.29143 46.2288 2.81653 46.7559 2.83476 47.4055C3.0645 55.5919 5.68759 63.5583 10.4135 70.3808C15.3656 77.5298 22.4042 83.1017 30.6393 86.3921C38.8743 89.6824 47.9359 90.5433 56.6782 88.8659C65.4205 87.1885 73.4508 83.0482 79.7536 76.9684C86.0565 70.8887 90.3487 63.1427 92.0877 54.7099C93.8266 46.277 92.9342 37.5362 89.5231 29.5927C86.112 21.6491 80.3356 14.8597 72.9242 10.0829C65.8278 5.50902 57.5376 2.97713 49.021 2.77022C48.3943 2.755 47.886 2.24825 47.886 1.62138Z" fill="white"/>
<path d="M47.886 1.62138C47.886 0.994509 48.3943 0.484959 49.021 0.499431C55.9051 0.658399 62.6757 2.26192 68.8598 5.20363C75.3835 8.30687 81.0796 12.8161 85.5077 18.3826C89.9357 23.949 92.9768 30.4234 94.3959 37.3049C95.8149 44.1864 95.5738 51.2906 93.6912 58.0678C91.8086 64.8451 88.335 71.1138 83.539 76.3889C78.7431 81.6641 72.7533 85.8043 66.0332 88.4894C59.3131 91.1744 52.0427 92.3323 44.7845 91.8734C37.9228 91.4395 31.2458 89.5718 25.2145 86.405C24.6422 86.1045 24.4501 85.3839 24.7821 84.8293C25.0997 84.2986 25.7807 84.1175 26.3282 84.4052C32.0632 87.4184 38.4129 89.1956 44.9384 89.6081C51.8364 90.0442 58.746 88.9438 65.1326 86.3921C71.5192 83.8403 77.2117 79.9055 81.7696 74.8922C86.3276 69.8788 89.6288 63.9212 91.418 57.4803C93.2072 51.0394 93.4363 44.2878 92.0877 37.7478C90.7391 31.2078 87.8488 25.0547 83.6406 19.7645C79.4323 14.4743 74.0188 10.1889 67.8189 7.23962C61.9586 4.45193 55.5441 2.92872 49.021 2.77022C48.3943 2.75499 47.886 2.24825 47.886 1.62138Z" fill="white"/>
<g clip-path="url(#clip0_774_6763)">
<path d="M67.5072 47.121V44.1262C67.5072 39.1062 65.4399 34.2918 61.7599 30.7421C58.08 27.1924 53.0889 25.1982 47.8847 25.1982C42.6805 25.1982 37.6894 27.1924 34.0095 30.7421C30.3295 34.2918 28.2622 39.1062 28.2622 44.1262V47.121C25.9754 48.0923 24.1039 49.7918 22.9611 51.9351C21.8182 54.0784 21.4733 56.5354 21.9842 58.8947C22.495 61.254 23.8305 63.3724 25.7672 64.8953C27.7039 66.4182 30.1241 67.2531 32.6227 67.2603C33.7792 67.2603 34.8884 66.8172 35.7061 66.0283C36.5239 65.2395 36.9833 64.1697 36.9833 63.0541V50.4355C36.9833 49.3199 36.5239 48.2501 35.7061 47.4612C34.8884 46.6724 33.7792 46.2293 32.6227 46.2293V44.1262C32.6227 40.2217 34.2307 36.4772 37.0929 33.7163C39.955 30.9555 43.837 29.4044 47.8847 29.4044C51.9324 29.4044 55.8144 30.9555 58.6765 33.7163C61.5387 36.4772 63.1467 40.2217 63.1467 44.1262V46.2293C61.9902 46.2293 60.8811 46.6724 60.0633 47.4612C59.2455 48.2501 58.7861 49.3199 58.7861 50.4355V63.0541H52.2453C51.667 63.0541 51.1125 63.2757 50.7036 63.6701C50.2947 64.0645 50.065 64.5994 50.065 65.1572C50.065 65.715 50.2947 66.2499 50.7036 66.6443C51.1125 67.0387 51.667 67.2603 52.2453 67.2603H63.1467C65.6453 67.2531 68.0655 66.4182 70.0022 64.8953C71.9389 63.3724 73.2744 61.254 73.7852 58.8947C74.2961 56.5354 73.9512 54.0784 72.8083 51.9351C71.6655 49.7918 69.794 48.0923 67.5072 47.121ZM32.6227 63.0541C30.888 63.0541 29.2243 62.3894 27.9977 61.2061C26.771 60.0229 26.0819 58.4181 26.0819 56.7448C26.0819 55.0715 26.771 53.4667 27.9977 52.2834C29.2243 51.1002 30.888 50.4355 32.6227 50.4355V63.0541ZM63.1467 63.0541V50.4355C64.8814 50.4355 66.5451 51.1002 67.7717 52.2834C68.9984 53.4667 69.6875 55.0715 69.6875 56.7448C69.6875 58.4181 68.9984 60.0229 67.7717 61.2061C66.5451 62.3894 64.8814 63.0541 63.1467 63.0541Z" fill="white"/>
</g>
<defs>
<clipPath id="clip0_774_6763">
<rect width="52.3267" height="50.4745" fill="white" transform="translate(21.7227 20.9922)"/>
</clipPath>
</defs>
</svg>
