<svg width="27" height="27" viewBox="0 0 27 27" fill="none" xmlns="http://www.w3.org/2000/svg">
<path d="M21.375 2.25098H20.25V1.12598C20.25 0.503852 19.746 0.000976562 19.125 0.000976562C18.504 0.000976562 18 0.503852 18 1.12598V2.25098H9V1.12598C9 0.503852 8.496 0.000976562 7.875 0.000976562C7.254 0.000976562 6.75 0.503852 6.75 1.12598V2.25098H5.625C2.52338 2.25098 0 4.77435 0 7.87598V21.5177C0 24.085 1.73475 26.3249 4.21875 26.9661C4.82175 27.1214 5.43375 26.7569 5.589 26.1561C5.74425 25.5554 5.382 24.9411 4.78013 24.7859C3.2895 24.4022 2.24887 23.059 2.24887 21.5177V11.251H24.7489V21.5177C24.7489 23.059 23.7083 24.4022 22.2176 24.7859C21.6158 24.9411 21.2546 25.5554 21.4088 26.1561C21.5393 26.6635 21.996 27.001 22.4977 27.001C22.5911 27.001 22.6856 26.9897 22.779 26.9661C25.263 26.326 26.9977 24.085 26.9977 21.5177V7.87598C26.9977 4.77435 24.4744 2.25098 21.3727 2.25098H21.375ZM2.25 9.00098V7.87598C2.25 6.01523 3.76425 4.50098 5.625 4.50098H21.375C23.2358 4.50098 24.75 6.01523 24.75 7.87598V9.00098H2.25ZM16.3125 20.251H14.625V19.126C14.625 18.5039 14.121 18.001 13.5 18.001C12.879 18.001 12.375 18.5039 12.375 19.126V20.251H10.6875C9.13725 20.251 7.875 21.5121 7.875 23.0635V24.1885C7.875 25.7399 9.13725 27.001 10.6875 27.001H16.3125C17.8627 27.001 19.125 25.7399 19.125 24.1885V23.0635C19.125 21.5121 17.8627 20.251 16.3125 20.251ZM16.875 24.1885C16.875 24.4979 16.623 24.751 16.3125 24.751H10.6875C10.377 24.751 10.125 24.4979 10.125 24.1885V23.0635C10.125 22.7541 10.377 22.501 10.6875 22.501H16.3125C16.623 22.501 16.875 22.7541 16.875 23.0635V24.1885ZM13.5 16.876C12.5685 16.876 11.8125 16.12 11.8125 15.1885C11.8125 14.3144 12.618 12.9835 13.1152 12.5267C13.3335 12.3265 13.6654 12.3265 13.8836 12.5267C14.382 12.9835 15.1864 14.3144 15.1864 15.1885C15.1864 16.12 14.4304 16.876 13.4989 16.876H13.5Z" fill="#FF9F1E"/>
</svg>
