<svg width="18" height="18" viewBox="0 0 18 18" fill="none" xmlns="http://www.w3.org/2000/svg">
<path fill-rule="evenodd" clip-rule="evenodd" d="M17.4707 4.32277C15.6891 6.1043 11.5076 10.285 10.4878 11.3014C10.2674 11.521 10.0051 11.6944 9.72357 11.8076C8.9057 12.1469 6.91048 12.9296 6.3239 12.969C5.97447 12.9925 5.63173 12.8634 5.38369 12.6154C5.13565 12.3673 5.0066 12.0246 5.03007 11.6752C5.06945 11.0886 5.85212 9.09504 6.18564 8.28053C6.30211 7.99143 6.47557 7.72914 6.69596 7.50959L13.6763 0.528413C14.014 0.190709 14.4732 0.000488281 14.9509 0.000488281C15.4285 0.000488281 15.8877 0.190709 16.2254 0.528413L17.4707 1.77364C17.8084 2.11135 17.9986 2.57056 17.9986 3.04821C17.9986 3.52585 17.8084 3.98506 17.4707 4.32277ZM6.28954 11.7095C6.86272 11.6375 8.53783 10.9386 9.24173 10.6461C9.24425 10.6453 9.24676 10.6445 9.24844 10.6436C9.38 10.5908 9.49899 10.5121 9.59871 10.4123L9.59955 10.4115C10.621 9.39503 14.8009 5.21521 16.5816 3.43367C16.6838 3.33144 16.7416 3.19318 16.7416 3.04821C16.7416 2.90324 16.6838 2.76497 16.5816 2.66274L15.3363 1.41751C15.2341 1.31527 15.0958 1.25745 14.9509 1.25745C14.8059 1.25745 14.6676 1.31527 14.5654 1.41751L7.58422 8.39868C7.48366 8.4984 7.40489 8.61823 7.3521 8.74979L7.35042 8.75314C7.06132 9.45872 6.36161 11.1355 6.28954 11.7095Z" fill="#71717A"/>
<path fill-rule="evenodd" clip-rule="evenodd" d="M15.8105 5.09415C16.0552 5.33968 16.0552 5.73772 15.8105 5.98324C15.565 6.22877 15.167 6.22877 14.9214 5.98324L12.0162 3.07798C11.7706 2.83245 11.7706 2.43441 12.0162 2.18889C12.2617 1.9442 12.6597 1.9442 12.9053 2.18889L15.8105 5.09415Z" fill="#71717A"/>
<path fill-rule="evenodd" clip-rule="evenodd" d="M10.6769 10.2227C10.9224 10.4674 10.9224 10.8663 10.6769 11.111C10.4322 11.3565 10.0333 11.3565 9.78863 11.111L6.88336 8.2057C6.63784 7.96101 6.63784 7.56213 6.88336 7.31745C7.12805 7.07192 7.52693 7.07192 7.77162 7.31745L10.6769 10.2227Z" fill="#71717A"/>
<path fill-rule="evenodd" clip-rule="evenodd" d="M6.07532 1.65918C6.42225 1.65918 6.70381 1.94074 6.70381 2.28766C6.70381 2.63458 6.42225 2.91614 6.07532 2.91614H3.14241C2.10081 2.91614 1.25696 3.75998 1.25696 4.80159V14.8573C1.25696 15.3576 1.45556 15.8369 1.80919 16.1905C2.16282 16.5441 2.64214 16.7427 3.14241 16.7427H14.0361C14.5364 16.7427 15.0157 16.5441 15.3693 16.1905C15.7229 15.8369 15.9215 15.3576 15.9215 14.8573V11.9244C15.9215 11.5775 16.2031 11.2959 16.55 11.2959C16.8969 11.2959 17.1785 11.5775 17.1785 11.9244V14.8573C17.1785 15.6911 16.8475 16.4897 16.2584 17.0796C15.6685 17.6687 14.8699 17.9997 14.0361 17.9997H3.14241C2.30862 17.9997 1.51003 17.6687 0.920097 17.0796C0.331 16.4897 0 15.6911 0 14.8573V4.80159C0 3.06614 1.40696 1.65918 3.14241 1.65918H6.07532Z" fill="#71717A"/>
</svg>
