<svg width="27" height="19" viewBox="0 0 27 19" fill="none" xmlns="http://www.w3.org/2000/svg">
<path d="M24.6309 0.00927734H2.37695C1.06582 0.00927734 0.00390625 1.07778 0.00390625 2.38232V16.6206C0.00390625 17.9329 1.07362 18.9937 2.37695 18.9937H24.6309C25.931 18.9937 27.0039 17.9374 27.0039 16.6206V2.38232C27.0039 1.0801 25.9462 0.00927734 24.6309 0.00927734ZM24.2985 1.59131C23.8137 2.07356 15.47 10.3733 15.1819 10.6599C14.7337 11.1081 14.1378 11.3549 13.5039 11.3549C12.87 11.3549 12.2741 11.1081 11.8244 10.6584C11.6307 10.4657 3.37906 2.25755 2.70929 1.59131H24.2985ZM1.58594 16.2986V2.70532L8.42232 9.50568L1.58594 16.2986ZM2.71029 17.4116L9.54398 10.6214L10.7072 11.7785C11.4543 12.5256 12.4475 12.937 13.5039 12.937C14.5603 12.937 15.5535 12.5256 16.2991 11.78L17.4638 10.6214L24.2975 17.4116H2.71029ZM25.4219 16.2986L18.5855 9.50568L25.4219 2.70532V16.2986Z" fill="#EA4335"/>
</svg>
