<svg width="122" height="101" viewBox="0 0 122 101" fill="none" xmlns="http://www.w3.org/2000/svg">
<path opacity="0.4" d="M61.886 3.62138C61.886 2.99451 62.3943 2.48496 63.021 2.49943C72.0032 2.70681 80.7483 5.37204 88.2317 10.1953C96.0301 15.2216 102.108 22.3656 105.697 30.7239C109.287 39.0823 110.226 48.2796 108.396 57.1527C106.566 66.0259 102.05 74.1764 95.4177 80.5736C88.7858 86.9708 80.3362 91.3274 71.1374 93.0924C61.9386 94.8574 52.4038 93.9515 43.7387 90.4894C35.0736 87.0272 27.6674 81.1643 22.4567 73.642C17.4722 66.4461 14.7108 58.041 14.4805 49.4055C14.4632 48.7559 14.9917 48.2288 15.6416 48.2288C16.2914 48.2288 16.8165 48.7559 16.8348 49.4055C17.0645 57.5919 19.6876 65.5583 24.4135 72.3808C29.3656 79.5298 36.4042 85.1017 44.6393 88.3921C52.8743 91.6824 61.9359 92.5433 70.6782 90.8659C79.4205 89.1885 87.4508 85.0482 93.7536 78.9684C100.056 72.8887 104.349 65.1427 106.088 56.7099C107.827 48.277 106.934 39.5362 103.523 31.5927C100.112 23.6491 94.3356 16.8597 86.9242 12.0829C79.8278 7.50902 71.5376 4.97713 63.021 4.77022C62.3943 4.755 61.886 4.24825 61.886 3.62138Z" fill="white"/>
<path d="M61.886 3.62138C61.886 2.99451 62.3943 2.48496 63.021 2.49943C69.9051 2.6584 76.6757 4.26192 82.8598 7.20363C89.3835 10.3069 95.0796 14.8161 99.5077 20.3826C103.936 25.949 106.977 32.4234 108.396 39.3049C109.815 46.1864 109.574 53.2906 107.691 60.0678C105.809 66.8451 102.335 73.1138 97.539 78.3889C92.7431 83.6641 86.7533 87.8043 80.0332 90.4894C73.3131 93.1744 66.0427 94.3323 58.7845 93.8734C51.9228 93.4395 45.2458 91.5718 39.2145 88.405C38.6422 88.1045 38.4501 87.3839 38.7821 86.8293C39.0997 86.2986 39.7807 86.1175 40.3282 86.4052C46.0632 89.4184 52.4129 91.1956 58.9384 91.6081C65.8364 92.0442 72.746 90.9438 79.1326 88.3921C85.5192 85.8403 91.2117 81.9055 95.7696 76.8922C100.328 71.8788 103.629 65.9212 105.418 59.4803C107.207 53.0394 107.436 46.2878 106.088 39.7478C104.739 33.2078 101.849 27.0547 97.6406 21.7645C93.4323 16.4743 88.0188 12.1889 81.8189 9.23962C75.9586 6.45193 69.5441 4.92872 63.021 4.77022C62.3943 4.75499 61.886 4.24825 61.886 3.62138Z" fill="white"/>
<g clip-path="url(#clip0_774_6762)">
<path d="M81.5072 49.121V46.1262C81.5072 41.1062 79.4399 36.2918 75.7599 32.7421C72.08 29.1924 67.0889 27.1982 61.8847 27.1982C56.6805 27.1982 51.6894 29.1924 48.0095 32.7421C44.3295 36.2918 42.2622 41.1062 42.2622 46.1262V49.121C39.9754 50.0923 38.1039 51.7918 36.9611 53.9351C35.8182 56.0784 35.4733 58.5354 35.9842 60.8947C36.495 63.254 37.8305 65.3724 39.7672 66.8953C41.7039 68.4182 44.1241 69.2531 46.6227 69.2603C47.7792 69.2603 48.8884 68.8172 49.7061 68.0283C50.5239 67.2395 50.9833 66.1697 50.9833 65.0541V52.4355C50.9833 51.3199 50.5239 50.2501 49.7061 49.4612C48.8884 48.6724 47.7792 48.2293 46.6227 48.2293V46.1262C46.6227 42.2217 48.2307 38.4772 51.0929 35.7163C53.955 32.9555 57.837 31.4044 61.8847 31.4044C65.9324 31.4044 69.8144 32.9555 72.6765 35.7163C75.5387 38.4772 77.1467 42.2217 77.1467 46.1262V48.2293C75.9902 48.2293 74.8811 48.6724 74.0633 49.4612C73.2455 50.2501 72.7861 51.3199 72.7861 52.4355V65.0541H66.2453C65.667 65.0541 65.1125 65.2757 64.7036 65.6701C64.2947 66.0645 64.065 66.5994 64.065 67.1572C64.065 67.715 64.2947 68.2499 64.7036 68.6443C65.1125 69.0387 65.667 69.2603 66.2453 69.2603H77.1467C79.6453 69.2531 82.0655 68.4182 84.0022 66.8953C85.9389 65.3724 87.2744 63.254 87.7852 60.8947C88.2961 58.5354 87.9512 56.0784 86.8083 53.9351C85.6655 51.7918 83.794 50.0923 81.5072 49.121ZM46.6227 65.0541C44.888 65.0541 43.2243 64.3894 41.9977 63.2061C40.771 62.0229 40.0819 60.4181 40.0819 58.7448C40.0819 57.0715 40.771 55.4667 41.9977 54.2834C43.2243 53.1002 44.888 52.4355 46.6227 52.4355V65.0541ZM77.1467 65.0541V52.4355C78.8814 52.4355 80.5451 53.1002 81.7717 54.2834C82.9984 55.4667 83.6875 57.0715 83.6875 58.7448C83.6875 60.4181 82.9984 62.0229 81.7717 63.2061C80.5451 64.3894 78.8814 65.0541 77.1467 65.0541Z" fill="white"/>
</g>
<ellipse cx="118.231" cy="4.06383" rx="3.27042" ry="3.15465" fill="white"/>
<ellipse cx="6.22324" cy="17.4708" rx="5.72324" ry="5.52065" fill="white"/>
<ellipse cx="94.527" cy="97.9148" rx="2.45282" ry="2.36599" fill="white"/>
<ellipse cx="9.48797" cy="91.6052" rx="2.45282" ry="2.36599" fill="white"/>
<defs>
<clipPath id="clip0_774_6762">
<rect width="52.3267" height="50.4745" fill="white" transform="translate(35.7227 22.9922)"/>
</clipPath>
</defs>
</svg>
