<svg width="20" height="20" viewBox="0 0 20 20" fill="none" xmlns="http://www.w3.org/2000/svg">
<path d="M17.3035 2.69653C15.0414 0.434472 11.3608 0.434507 9.0987 2.69653C7.55372 4.24151 7.01724 6.51889 7.68595 8.58461L1.15451 15.1161C1.05558 15.215 1 15.3491 1 15.489V18.4726C1 18.7639 1.23614 19 1.52741 19H4.51098C4.65091 19 4.78499 18.9444 4.88396 18.8455L5.62997 18.0995C5.74391 17.9855 5.79953 17.8257 5.7809 17.6656L5.6878 16.8646L6.79818 16.76C7.05032 16.7362 7.25001 16.5366 7.27377 16.2844L7.3785 15.1739L8.17954 15.267C8.32909 15.2845 8.47879 15.2371 8.59122 15.137C8.70358 15.0369 8.76788 14.8936 8.76788 14.7431V13.7609H9.73221C9.87105 13.7609 10.0043 13.7062 10.103 13.6086L11.4134 12.3133C13.4796 12.9831 15.7581 12.4467 17.3035 10.9013C19.5655 8.63924 19.5655 4.95855 17.3035 2.69653ZM16.5576 10.1554C15.2264 11.4866 13.2295 11.9021 11.4704 11.2141C11.2762 11.1382 11.0557 11.1837 10.9075 11.3302L9.51555 12.7061H8.24043C7.94916 12.7061 7.71302 12.9422 7.71302 13.2335V14.1508L6.96489 14.0639C6.82395 14.0475 6.68241 14.0886 6.57212 14.1778C6.46187 14.2671 6.3922 14.397 6.37887 14.5382L6.26451 15.7507L5.05211 15.865C4.91085 15.8783 4.78095 15.948 4.69165 16.0583C4.60239 16.1685 4.56129 16.3101 4.57768 16.451L4.70361 17.534L4.29249 17.9452H2.05479V15.7075L8.66758 9.09476C8.81573 8.94661 8.86217 8.72481 8.78584 8.52969C8.09777 6.77054 8.51335 4.77374 9.84454 3.44248C11.6954 1.59171 14.7068 1.59171 16.5576 3.44248C18.4083 5.29321 18.4083 8.30466 16.5576 10.1554Z" fill="#71717A" stroke="#71717A" stroke-width="0.36"/>
<path d="M15.8097 4.18927C15.1928 3.57231 14.189 3.57235 13.5721 4.18927C12.9551 4.80619 12.9551 5.81001 13.5721 6.42693C14.189 7.04385 15.1928 7.04392 15.8097 6.42693C16.4266 5.81001 16.4266 4.80619 15.8097 4.18927ZM15.0639 5.68105C14.8582 5.88668 14.5236 5.88672 14.318 5.68105C14.1123 5.47542 14.1123 5.14084 14.318 4.93518C14.5242 4.72902 14.8577 4.72902 15.0639 4.93518C15.27 5.14133 15.27 5.4749 15.0639 5.68105Z" fill="#71717A"/>
</svg>
