<svg width="27" height="27" viewBox="0 0 27 27" fill="none" xmlns="http://www.w3.org/2000/svg">
<g clip-path="url(#clip0_652_4543)">
<rect width="27" height="27" transform="translate(0 0.000976562)" fill="white"/>
<path d="M24.1914 23.626H2.81641C1.26616 23.626 0.00390625 22.3637 0.00390625 20.8135V6.18848C0.00390625 4.63823 1.26616 3.37598 2.81641 3.37598H24.1914C25.7417 3.37598 27.0039 4.63823 27.0039 6.18848V20.8135C27.0039 22.3637 25.7417 23.626 24.1914 23.626ZM2.81641 4.50098C1.88603 4.50098 1.12891 5.2581 1.12891 6.18848V20.8135C1.12891 21.7439 1.88603 22.501 2.81641 22.501H24.1914C25.1218 22.501 25.8789 21.7439 25.8789 20.8135V6.18848C25.8789 5.2581 25.1218 4.50098 24.1914 4.50098H2.81641Z" fill="#527DFF" stroke="#527DFF" stroke-width="0.3"/>
<path d="M8.44141 13.501C6.89116 13.501 5.62891 12.2387 5.62891 10.6885C5.62891 9.13823 6.89116 7.87598 8.44141 7.87598C9.99166 7.87598 11.2539 9.13823 11.2539 10.6885C11.2539 12.2387 9.99166 13.501 8.44141 13.501ZM8.44141 9.00098C7.51103 9.00098 6.75391 9.7581 6.75391 10.6885C6.75391 11.6189 7.51103 12.376 8.44141 12.376C9.37178 12.376 10.1289 11.6189 10.1289 10.6885C10.1289 9.7581 9.37178 9.00098 8.44141 9.00098Z" fill="#527DFF" stroke="#527DFF" stroke-width="0.3"/>
<path d="M12.9414 19.126C12.6309 19.126 12.3789 18.874 12.3789 18.5635V17.4385C12.3789 16.5081 11.6218 15.751 10.6914 15.751H6.19141C5.26103 15.751 4.50391 16.5081 4.50391 17.4385V18.5635C4.50391 18.874 4.25191 19.126 3.94141 19.126C3.63091 19.126 3.37891 18.874 3.37891 18.5635V17.4385C3.37891 15.8882 4.64116 14.626 6.19141 14.626H10.6914C12.2417 14.626 13.5039 15.8882 13.5039 17.4385V18.5635C13.5039 18.874 13.2519 19.126 12.9414 19.126Z" fill="#527DFF" stroke="#527DFF" stroke-width="0.3"/>
<path d="M23.0664 10.126H16.3164C16.0059 10.126 15.7539 9.87398 15.7539 9.56348C15.7539 9.25298 16.0059 9.00098 16.3164 9.00098H23.0664C23.3769 9.00098 23.6289 9.25298 23.6289 9.56348C23.6289 9.87398 23.3769 10.126 23.0664 10.126Z" fill="#527DFF" stroke="#527DFF" stroke-width="0.3"/>
<path d="M23.0664 14.626H16.3164C16.0059 14.626 15.7539 14.374 15.7539 14.0635C15.7539 13.753 16.0059 13.501 16.3164 13.501H23.0664C23.3769 13.501 23.6289 13.753 23.6289 14.0635C23.6289 14.374 23.3769 14.626 23.0664 14.626Z" fill="#527DFF" stroke="#527DFF" stroke-width="0.3"/>
<path d="M23.0664 19.126H16.3164C16.0059 19.126 15.7539 18.874 15.7539 18.5635C15.7539 18.253 16.0059 18.001 16.3164 18.001H23.0664C23.3769 18.001 23.6289 18.253 23.6289 18.5635C23.6289 18.874 23.3769 19.126 23.0664 19.126Z" fill="#527DFF" stroke="#527DFF" stroke-width="0.3"/>
</g>
<defs>
<clipPath id="clip0_652_4543">
<rect width="27" height="27" fill="white" transform="translate(0 0.000976562)"/>
</clipPath>
</defs>
</svg>

