<svg width="27" height="27" viewBox="0 0 27 27" fill="none" xmlns="http://www.w3.org/2000/svg">
<path d="M24.7551 0.000990152H22.3116C21.8683 -0.000272638 21.429 0.0864847 21.0194 0.256233C20.6098 0.425981 20.238 0.675344 19.9255 0.989865L10.5194 10.3949C8.71855 9.93023 6.81491 10.0705 5.10168 10.7942C3.38845 11.5179 1.96067 12.7848 1.03826 14.3997C0.115849 16.0146 -0.250015 17.8881 -0.00297965 19.7314C0.244056 21.5747 1.09029 23.2857 2.40537 24.6008C3.72044 25.9158 5.43142 26.7621 7.27474 27.0091C9.11806 27.2561 10.9915 26.8903 12.6064 25.9679C14.2214 25.0455 15.4882 23.6177 16.2119 21.9044C16.9356 20.1912 17.0759 18.2876 16.6113 16.4867L18.0051 15.0929V12.376H21.3801V9.00099H24.0959L26.0163 7.08062C26.3307 6.76779 26.5799 6.39574 26.7497 5.98598C26.9194 5.57622 27.0062 5.13689 27.0051 4.69337V2.25099C27.0051 1.65425 26.7681 1.08196 26.3461 0.66C25.9242 0.238043 25.3519 0.000990152 24.7551 0.000990152ZM24.7551 4.69337C24.7552 4.84128 24.7262 4.98777 24.6696 5.12444C24.6131 5.26111 24.5301 5.38529 24.4255 5.48987L23.1644 6.75099H19.1301V10.126H15.7551V14.1591L14.017 15.8972C14.4128 16.7308 14.6221 17.6407 14.6301 18.5635C14.6301 19.7873 14.2672 20.9836 13.5873 22.0011C12.9075 23.0186 11.9411 23.8117 10.8105 24.28C9.67987 24.7483 8.43577 24.8708 7.23551 24.6321C6.03525 24.3934 4.93274 23.8041 4.06741 22.9387C3.20207 22.0734 2.61277 20.9709 2.37402 19.7706C2.13527 18.5704 2.25781 17.3263 2.72612 16.1956C3.19444 15.065 3.98751 14.0987 5.00504 13.4188C6.02257 12.7389 7.21886 12.376 8.44263 12.376C9.37172 12.3153 10.2982 12.528 11.1078 12.988L21.5163 2.58062C21.7278 2.37056 22.0135 2.25215 22.3116 2.25099H24.7551V4.69337ZM5.63013 20.251C5.63013 20.4735 5.69611 20.691 5.81973 20.876C5.94334 21.061 6.11904 21.2052 6.32461 21.2904C6.53018 21.3755 6.75638 21.3978 6.97461 21.3544C7.19284 21.311 7.39329 21.2038 7.55062 21.0465C7.70796 20.8892 7.8151 20.6887 7.85851 20.4705C7.90192 20.2522 7.87964 20.026 7.79449 19.8205C7.70935 19.6149 7.56515 19.4392 7.38015 19.3156C7.19514 19.192 6.97763 19.126 6.75513 19.126C6.45676 19.126 6.17061 19.2445 5.95963 19.4555C5.74866 19.6665 5.63013 19.9526 5.63013 20.251Z" fill="#10B981"/>
</svg>
