<svg width="20" height="21" viewBox="0 0 20 21" fill="none" xmlns="http://www.w3.org/2000/svg">
<g clip-path="url(#clip0_692_2449)">
<path d="M9.9974 13.4088C9.77639 13.4088 9.56442 13.321 9.40814 13.1647C9.25186 13.0085 9.16407 12.7965 9.16407 12.5755C9.19501 12.0309 9.36067 11.5026 9.64619 11.0379C9.9317 10.5732 10.3281 10.1867 10.7999 9.91298C11.1082 9.74402 11.3549 9.48166 11.5047 9.16361C11.6544 8.84556 11.6994 8.48822 11.6332 8.14297C11.569 7.81321 11.4078 7.51014 11.1703 7.27258C10.9327 7.03503 10.6297 6.87383 10.2999 6.80964C10.0592 6.76521 9.81162 6.77435 9.57482 6.83642C9.33803 6.89848 9.11782 7.01195 8.92983 7.16875C8.74185 7.32554 8.59072 7.52182 8.48717 7.74364C8.38363 7.96545 8.33022 8.20735 8.33073 8.45214C8.33073 8.67316 8.24293 8.88512 8.08665 9.0414C7.93037 9.19768 7.71841 9.28547 7.4974 9.28547C7.27638 9.28547 7.06442 9.19768 6.90814 9.0414C6.75186 8.88512 6.66407 8.67316 6.66407 8.45214C6.66398 7.96527 6.77055 7.48429 6.97628 7.04302C7.18202 6.60175 7.48192 6.21091 7.8549 5.89797C8.21136 5.59998 8.62618 5.37979 9.07274 5.25154C9.51931 5.1233 9.98775 5.08982 10.448 5.15326C10.9083 5.2167 11.3502 5.37566 11.7454 5.61994C12.1406 5.86422 12.4804 6.18842 12.7429 6.57174C13.0055 6.95506 13.185 7.38904 13.27 7.84582C13.3549 8.3026 13.3435 8.77209 13.2363 9.22418C13.1292 9.67627 12.9287 10.101 12.6477 10.471C12.3668 10.8411 12.0116 11.1483 11.6049 11.373C11.3942 11.5028 11.2153 11.6782 11.0813 11.8863C10.9473 12.0944 10.8617 12.3299 10.8307 12.5755C10.8307 12.7965 10.7429 13.0085 10.5867 13.1647C10.4304 13.321 10.2184 13.4088 9.9974 13.4088ZM10.6582 20.7088C12.4582 19.9855 18.3307 17.1413 18.3307 10.9446V6.63548C18.3317 5.75965 18.0562 4.90587 17.5436 4.19574C17.0309 3.48561 16.3073 2.95534 15.4757 2.68047L10.2599 0.951308C10.0896 0.893835 9.90518 0.893835 9.7349 0.951308L4.51907 2.68047C3.68749 2.95534 2.96386 3.48561 2.45123 4.19574C1.93861 4.90587 1.66314 5.75965 1.66406 6.63548V10.9446C1.66406 16.413 7.50156 19.758 9.29156 20.653C9.50797 20.7833 9.74772 20.8702 9.9974 20.9088C10.2282 20.8838 10.4523 20.816 10.6582 20.7088ZM14.9507 4.26214C15.4495 4.42749 15.8835 4.74579 16.1911 5.17184C16.4986 5.59788 16.6641 6.11001 16.6641 6.63548V10.9446C16.6641 16.0971 11.5916 18.5371 10.0366 19.1621C8.46323 18.3755 3.33073 15.458 3.33073 10.9446V6.63548C3.33066 6.11001 3.49617 5.59788 3.80373 5.17184C4.1113 4.74579 4.54529 4.42749 5.04407 4.26214L9.9974 2.62047L14.9507 4.26214ZM9.9974 15.0755C9.83258 15.0755 9.67146 15.1243 9.53442 15.2159C9.39738 15.3075 9.29057 15.4376 9.2275 15.5899C9.16443 15.7422 9.14792 15.9097 9.18008 16.0714C9.21223 16.233 9.2916 16.3815 9.40814 16.4981C9.52469 16.6146 9.67317 16.694 9.83482 16.7261C9.99647 16.7583 10.164 16.7418 10.3163 16.6787C10.4686 16.6156 10.5987 16.5088 10.6903 16.3718C10.7819 16.2347 10.8307 16.0736 10.8307 15.9088C10.8307 15.6878 10.7429 15.4758 10.5867 15.3196C10.4304 15.1633 10.2184 15.0755 9.9974 15.0755Z" fill="#FF9F1E"/>
</g>
<defs>
<clipPath id="clip0_692_2449">
<rect width="20" height="20" fill="white" transform="translate(0 0.90918)"/>
</clipPath>
</defs>
</svg>
