<svg width="180" height="180" viewBox="0 0 180 180" fill="none" xmlns="http://www.w3.org/2000/svg">
<path opacity="0.2" d="M152.866 47.0094C168.353 66.5574 170.059 101.324 155.36 124.414C140.792 147.373 109.819 158.525 83.0455 156.032C56.272 153.671 33.5671 137.665 22.5428 116.805C11.5184 95.9449 12.1746 70.2308 23.4615 53.0443C34.7483 35.8578 56.797 27.3302 82.5205 25.2311C108.113 23.132 137.38 27.4614 152.866 47.0094Z" fill="#C1D0FF"/>
<circle opacity="0.5" cx="169.931" cy="122.456" r="4.55625" fill="#527DFF"/>
<circle opacity="0.5" cx="18.1125" cy="141.188" r="9.1125" fill="#527DFF"/>
<circle opacity="0.5" cx="20.6414" cy="37.4061" r="3.54375" fill="#527DFF"/>
<path d="M137.688 57.7303C149.433 72.4665 150.727 98.6751 139.58 116.082C128.531 133.389 105.042 141.796 84.737 139.917C64.4323 138.136 47.2132 126.071 38.8524 110.345C30.4917 94.6202 30.9893 75.2357 39.5491 62.2798C48.109 49.3238 64.8305 42.8953 84.3389 41.3129C103.748 39.7304 125.944 42.9942 137.688 57.7303Z" fill="#527DFF"/>
<path fill-rule="evenodd" clip-rule="evenodd" d="M111.82 90.5637C111.82 102.307 102.301 111.826 90.5578 111.826C78.8149 111.826 69.2953 102.307 69.2953 90.5637C69.2953 78.8207 78.8149 69.3012 90.5578 69.3012C102.301 69.3012 111.82 78.8207 111.82 90.5637ZM114.858 90.5637C114.858 103.984 103.978 114.864 90.5578 114.864C77.1373 114.864 66.2578 103.984 66.2578 90.5637C66.2578 77.1432 77.1373 66.2637 90.5578 66.2637C103.978 66.2637 114.858 77.1432 114.858 90.5637ZM102.245 84.5682C102.848 83.9856 102.865 83.0241 102.282 82.4207C101.7 81.8172 100.738 81.8004 100.135 82.383L86.5273 95.5214L81.5075 90.5017C80.9144 89.9086 79.9528 89.9086 79.3597 90.5017C78.7666 91.0948 78.7666 92.0564 79.3597 92.6495L84.7312 98.021C85.7075 98.9973 87.286 99.0111 88.2792 98.0521L102.245 84.5682Z" fill="white"/>
</svg>
