<svg width="22" height="25" viewBox="0 0 22 25" fill="none" xmlns="http://www.w3.org/2000/svg">
<path d="M4.23047 0.687473C3.33047 1.16091 2.23359 1.96716 1.43203 2.74529C0.864844 3.28904 0.785156 3.40622 0.785156 3.68747C0.785156 4.1656 1.21641 4.50779 1.69922 4.41872C1.82109 4.39529 1.99922 4.26404 2.36016 3.93591C3.06797 3.28435 3.67734 2.81091 4.30547 2.41716C4.61016 2.22497 4.96172 2.00466 5.08359 1.92966C5.32266 1.77966 5.51953 1.47497 5.51953 1.24997C5.51953 1.02029 5.32266 0.720285 5.09766 0.603098C4.80234 0.457785 4.63828 0.471848 4.23047 0.687473Z" fill="white"/>
<path d="M16.9259 0.589066C16.5931 0.743754 16.429 1.12344 16.5368 1.47032C16.6165 1.71875 16.7337 1.82657 17.1696 2.07969C18.0321 2.57657 18.7774 3.13438 19.654 3.93594C20.1743 4.41407 20.3056 4.47969 20.6478 4.41407C20.8774 4.37188 21.1587 4.09063 21.2009 3.86094C21.2665 3.51407 21.2009 3.36875 20.7649 2.92344C20.0571 2.19688 18.9462 1.35313 17.9103 0.757816C17.4509 0.495316 17.2165 0.453129 16.9259 0.589066Z" fill="white"/>
<path d="M10.1605 2C5.26209 2.40781 1.24021 5.96093 0.241775 10.7609C-0.0535377 12.1812 -0.0301002 13.9297 0.298025 15.3828C0.743337 17.3656 1.86834 19.3672 3.32146 20.7734C3.56521 21.0078 3.85115 21.275 3.95896 21.3641L4.15584 21.5281L3.55115 22.4516C3.21834 22.9625 2.92302 23.4547 2.8949 23.5437C2.78709 23.8672 2.95115 24.2422 3.26521 24.4062C3.50427 24.5234 3.70115 24.5234 3.95427 24.4016C4.1324 24.3172 4.22615 24.2 4.77459 23.3562L5.38865 22.4047L6.05427 22.7375C7.69021 23.5578 9.17146 23.9094 11.0043 23.9094C12.8418 23.9094 14.3183 23.5625 15.959 22.7375L16.6199 22.4047L17.2386 23.3562C17.7824 24.2 17.8715 24.3172 18.0543 24.4016C18.3074 24.5234 18.4668 24.5234 18.7199 24.4016C19.0855 24.2281 19.2355 23.8203 19.0761 23.4641C19.0293 23.3516 18.734 22.8687 18.4199 22.3906L17.8527 21.5281L18.0496 21.3641C19.9433 19.775 21.3027 17.4781 21.7808 15.0547C22.0105 13.8828 22.034 12.3078 21.8371 11.1641C21.0215 6.39218 17.2668 2.74062 12.4808 2.07031C11.8761 1.98593 10.7324 1.94843 10.1605 2ZM12.2371 3.57031C13.9386 3.79531 15.6121 4.5125 16.9574 5.59531C17.4074 5.95625 18.2136 6.79531 18.5605 7.25468C21.6168 11.3281 20.923 17.0609 16.9808 20.2812C13.9433 22.7609 9.58396 23.1031 6.24646 21.125C3.39646 19.4281 1.67615 16.5594 1.54959 13.2734C1.36209 8.4125 4.98084 4.17968 9.86052 3.55156C10.3949 3.48593 11.6558 3.49531 12.2371 3.57031Z" fill="white"/>
<path d="M10.6992 5.82033C10.6242 5.86252 10.5211 5.93283 10.4695 5.97502C10.2539 6.16721 10.2539 6.15783 10.2539 9.73908C10.2539 12.7438 10.2633 13.1375 10.3289 13.2781C10.4086 13.4422 13.4039 16.1047 13.6898 16.2594C14.2992 16.5969 15.007 15.9406 14.7164 15.3078C14.6414 15.1391 14.3555 14.8672 13.193 13.8594L11.7586 12.6172V9.48596C11.7539 6.9219 11.7398 6.32658 11.6883 6.20002C11.543 5.84846 11.0227 5.6469 10.6992 5.82033Z" fill="white"/>
</svg>
