<svg width="30" height="30" viewBox="0 0 30 30" fill="none" xmlns="http://www.w3.org/2000/svg">
<path d="M27.3125 3.72134L15.5175 0.15134C14.5575 -0.12991 13.5437 -0.01741 12.6637 0.46384C11.7862 0.94634 11.1475 1.74009 10.87 2.69134L10.1762 5.00134H3.75C1.6825 5.00134 0 6.68384 0 8.75134V30.0001H20V27.4438L23.8738 28.8826L29.85 8.36634C30.4275 6.38134 29.2838 4.29509 27.3125 3.72134ZM17.5 27.5001H2.5V8.75009C2.5 8.06134 3.06 7.50009 3.75 7.50009H16.25C16.94 7.50009 17.5 8.06134 17.5 8.75009V27.5001ZM27.45 7.66759L22.225 25.6026L20 24.7751V8.75009C20 6.68259 18.3175 5.00009 16.25 5.00009H12.7875L13.2687 3.40009C13.3625 3.08009 13.575 2.81634 13.8675 2.65509C14.1613 2.49384 14.4988 2.45759 14.8063 2.54759L26.6012 6.11759C27.2625 6.31009 27.645 7.00634 27.4525 7.66759H27.45Z" fill="#527DFF"/>
</svg>
