<svg width="26" height="25" viewBox="0 0 26 25" fill="none" xmlns="http://www.w3.org/2000/svg">
<path fill-rule="evenodd" clip-rule="evenodd" d="M14.5351 1.35974C14.0963 1.01836 13.5561 0.833008 13.0001 0.833008C12.4441 0.833008 11.904 1.01836 11.4651 1.35974L0.98513 9.50974C0.0451297 10.2435 0.56263 11.7497 1.75388 11.7497H3.11888L4.14388 21.9985C4.20557 22.6154 4.49426 23.1873 4.95392 23.6033C5.41358 24.0193 6.01142 24.2497 6.63138 24.2497H19.3689C19.9888 24.2497 20.5867 24.0193 21.0463 23.6033C21.506 23.1873 21.7947 22.6154 21.8564 21.9985L22.8814 11.7497H24.2464C25.4364 11.7497 25.9564 10.2435 25.0151 9.51099L14.5351 1.35974ZM13.0001 17.9997C13.9947 17.9997 14.9485 17.6047 15.6518 16.9014C16.355 16.1981 16.7501 15.2443 16.7501 14.2497C16.7501 13.2552 16.355 12.3014 15.6518 11.5981C14.9485 10.8948 13.9947 10.4997 13.0001 10.4997C12.0056 10.4997 11.0517 10.8948 10.3485 11.5981C9.64522 12.3014 9.25013 13.2552 9.25013 14.2497C9.25013 15.2443 9.64522 16.1981 10.3485 16.9014C11.0517 17.6047 12.0056 17.9997 13.0001 17.9997Z" fill="white"/>
</svg>
