<svg width="30" height="30" viewBox="0 0 30 30" fill="none" xmlns="http://www.w3.org/2000/svg">
<g clip-path="url(#clip0_1453_772)">
<path fill-rule="evenodd" clip-rule="evenodd" d="M16.5351 3.35999C16.0963 3.0186 15.5561 2.83325 15.0001 2.83325C14.4441 2.83325 13.904 3.0186 13.4651 3.35999L2.98513 11.51C2.04513 12.2437 2.56263 13.75 3.75388 13.75H5.11888L6.14388 23.9987C6.20557 24.6156 6.49426 25.1876 6.95392 25.6036C7.41358 26.0196 8.01142 26.25 8.63138 26.25H21.3689C21.9888 26.25 22.5867 26.0196 23.0463 25.6036C23.506 25.1876 23.7947 24.6156 23.8564 23.9987L24.8814 13.75H26.2464C27.4364 13.75 27.9564 12.2437 27.0151 11.5112L16.5351 3.35999ZM15.0001 20C15.9947 20 16.9485 19.6049 17.6518 18.9016C18.355 18.1984 18.7501 17.2445 18.7501 16.25C18.7501 15.2554 18.355 14.3016 17.6518 13.5983C16.9485 12.8951 15.9947 12.5 15.0001 12.5C14.0056 12.5 13.0517 12.8951 12.3485 13.5983C11.6452 14.3016 11.2501 15.2554 11.2501 16.25C11.2501 17.2445 11.6452 18.1984 12.3485 18.9016C13.0517 19.6049 14.0056 20 15.0001 20Z" fill="#527DFF"/>
</g>
<defs>
<clipPath id="clip0_1453_772">
<rect width="30" height="30" fill="white"/>
</clipPath>
</defs>
</svg>
