<svg width="24" height="24" viewBox="0 0 24 24" fill="none" xmlns="http://www.w3.org/2000/svg">
<g clip-path="url(#clip0_1520_2839)">
<path d="M7 22H5C4.20435 22 3.44129 21.6839 2.87868 21.1213C2.31607 20.5587 2 19.7956 2 19V5C2 4.20435 2.31607 3.44129 2.87868 2.87868C3.44129 2.31607 4.20435 2 5 2H7C7.26522 2 7.51957 1.89464 7.70711 1.70711C7.89464 1.51957 8 1.26522 8 1C8 0.734784 7.89464 0.48043 7.70711 0.292893C7.51957 0.105357 7.26522 0 7 0L5 0C3.67441 0.00158786 2.40356 0.528882 1.46622 1.46622C0.528882 2.40356 0.00158786 3.67441 0 5L0 19C0.00158786 20.3256 0.528882 21.5964 1.46622 22.5338C2.40356 23.4711 3.67441 23.9984 5 24H7C7.26522 24 7.51957 23.8946 7.70711 23.7071C7.89464 23.5196 8 23.2652 8 23C8 22.7348 7.89464 22.4804 7.70711 22.2929C7.51957 22.1054 7.26522 22 7 22Z" fill="white"/>
<path d="M18.5341 18.7074L23.1211 14.1214C23.6818 13.5579 23.9966 12.7953 23.9966 12.0004C23.9966 11.2055 23.6818 10.4429 23.1211 9.87941L18.5341 5.29341C18.3455 5.11125 18.0929 5.01045 17.8307 5.01273C17.5685 5.01501 17.3177 5.12018 17.1323 5.30559C16.9469 5.491 16.8417 5.74181 16.8394 6.00401C16.8371 6.2662 16.9379 6.51881 17.1201 6.70741L21.4121 11.0004H5.99609C5.73088 11.0004 5.47652 11.1058 5.28899 11.2933C5.10145 11.4808 4.99609 11.7352 4.99609 12.0004C4.99609 12.2656 5.10145 12.52 5.28899 12.7075C5.47652 12.8951 5.73088 13.0004 5.99609 13.0004H21.4131L17.1201 17.2934C17.0246 17.3857 16.9484 17.496 16.896 17.618C16.8436 17.74 16.816 17.8712 16.8148 18.004C16.8137 18.1368 16.839 18.2685 16.8893 18.3914C16.9396 18.5143 17.0138 18.6259 17.1077 18.7198C17.2016 18.8137 17.3132 18.8879 17.4361 18.9382C17.559 18.9885 17.6907 19.0138 17.8235 19.0127C17.9563 19.0115 18.0875 18.9839 18.2095 18.9315C18.3315 18.8791 18.4418 18.8029 18.5341 18.7074Z" fill="white"/>
</g>
<defs>
<clipPath id="clip0_1520_2839">
<rect width="24" height="24" fill="white"/>
</clipPath>
</defs>
</svg>
