<svg width="24" height="24" viewBox="0 0 24 24" fill="none" xmlns="http://www.w3.org/2000/svg">
<rect width="24" height="24" rx="4" fill="#D5E9F9"/>
<path d="M16.3737 4C16.6746 4 16.9726 4.0569 17.2507 4.16747C17.5287 4.27803 17.7813 4.44008 17.9942 4.64437C18.207 4.84865 18.3758 5.09118 18.4909 5.3581C18.6061 5.62501 18.6654 5.91109 18.6654 6.2V17.8C18.6654 18.0889 18.6061 18.375 18.4909 18.6419C18.3758 18.9088 18.207 19.1513 17.9942 19.3556C17.7813 19.5599 17.5287 19.722 17.2507 19.8325C16.9726 19.9431 16.6746 20 16.3737 20H7.6237C7.32268 20 7.02461 19.9431 6.74652 19.8325C6.46843 19.7218 6.21576 19.5597 6.00295 19.3554C5.79014 19.151 5.62135 18.9084 5.50623 18.6413C5.39112 18.3743 5.33192 18.0882 5.33203 17.7992V6.2C5.33203 5.192 6.03703 4.344 6.9987 4.0824V5.4C6.74536 5.5824 6.58203 5.872 6.58203 6.2V17.7984C6.58203 18.3504 7.0487 18.7984 7.6237 18.7984H16.3737C16.9487 18.7984 17.4154 18.3504 17.4154 17.7984V6.2C17.4154 5.648 16.9487 5.2 16.3737 5.2H14.4987V4H16.3737ZM13.6654 4V10.5112C13.6654 11.1088 12.9987 11.3328 12.5904 11.1224L12.522 11.0808L10.7504 10.0528L9.0187 11.0536C8.60203 11.3416 7.91036 11.1656 7.83786 10.6072L7.83203 10.512V4H13.6654ZM12.4154 5.2H9.08203V9.6184L10.3929 8.8592C10.4973 8.8059 10.6131 8.77644 10.7314 8.77311C10.8496 8.76978 10.967 8.79267 11.0745 8.84L12.4162 9.6192L12.4154 5.2Z" fill="#81A0D3"/>
</svg>
