<svg width="31" height="30" viewBox="0 0 31 30" fill="none" xmlns="http://www.w3.org/2000/svg">
<g clip-path="url(#clip0_617_1853)">
<path d="M28.8208 17.0776L26.4458 8.5326C25.7497 6.02927 24.2367 3.83046 22.1475 2.28569C20.0582 0.740917 17.5126 -0.0611657 14.9151 0.00693447C12.3177 0.0750346 9.81757 1.00941 7.81213 2.66154C5.8067 4.31366 4.41106 6.58873 3.84705 9.1251L2.0083 17.3939C1.8052 18.3075 1.80989 19.2551 2.02204 20.1667C2.23419 21.0784 2.64838 21.9307 3.23403 22.6608C3.81968 23.3909 4.56183 23.9802 5.40569 24.385C6.24955 24.7899 7.17358 25.0001 8.10955 25.0001H9.50205C9.78895 26.413 10.5555 27.6832 11.6717 28.5956C12.788 29.5079 14.1854 30.0064 15.6271 30.0064C17.0687 30.0064 18.4661 29.5079 19.5824 28.5956C20.6986 27.6832 21.4652 26.413 21.7521 25.0001H22.7996C23.7631 25.0002 24.7135 24.7775 25.5767 24.3494C26.4399 23.9213 27.1925 23.2995 27.7756 22.5324C28.3587 21.7654 28.7565 20.8739 28.9381 19.9276C29.1196 18.9814 29.0799 18.006 28.8221 17.0776H28.8208ZM15.6271 27.5001C14.8542 27.4969 14.1013 27.255 13.4712 26.8075C12.8411 26.36 12.3647 25.7287 12.1071 25.0001H19.1471C18.8894 25.7287 18.413 26.36 17.7829 26.8075C17.1528 27.255 16.3999 27.4969 15.6271 27.5001ZM25.7845 21.0189C25.4362 21.4809 24.985 21.8554 24.4666 22.1126C23.9482 22.3697 23.377 22.5024 22.7983 22.5001H8.10955C7.54803 22.5 6.9937 22.3738 6.48748 22.1308C5.98125 21.8878 5.53606 21.5343 5.18475 21.0962C4.83345 20.6582 4.585 20.1468 4.45775 19.5999C4.33051 19.053 4.3277 18.4845 4.44955 17.9363L6.28705 9.66635C6.72999 7.67411 7.82619 5.88711 9.40137 4.58941C10.9766 3.29172 12.9403 2.55782 14.9805 2.50437C17.0207 2.45092 19.0202 3.081 20.6612 4.29444C22.3022 5.50788 23.4904 7.23503 24.0371 9.20135L26.4121 17.7463C26.569 18.3031 26.594 18.8887 26.4851 19.4568C26.3761 20.0248 26.1363 20.5597 25.7845 21.0189Z" fill="#6C7180"/>
</g>
<defs>
<clipPath id="clip0_617_1853">
<rect width="30" height="30" fill="white" transform="translate(0.625)"/>
</clipPath>
</defs>
</svg>
