<svg width="30" height="30" viewBox="0 0 30 30" fill="none" xmlns="http://www.w3.org/2000/svg">
<path d="M26.25 1.25H3.75C1.6825 1.25 0 2.9325 0 5V28.75H30V5C30 2.9325 28.3175 1.25 26.25 1.25ZM3.75 3.75H26.25C26.94 3.75 27.5 4.31125 27.5 5V10H2.5V5C2.5 4.31125 3.06 3.75 3.75 3.75ZM2.5 26.25V12.5H27.5V26.25H2.5ZM3.75 6.875C3.75 5.84 4.59 5 5.625 5C6.66 5 7.5 5.84 7.5 6.875C7.5 7.91 6.66 8.75 5.625 8.75C4.59 8.75 3.75 7.91 3.75 6.875ZM8.75 6.875C8.75 5.84 9.59 5 10.625 5C11.66 5 12.5 5.84 12.5 6.875C12.5 7.91 11.66 8.75 10.625 8.75C9.59 8.75 8.75 7.91 8.75 6.875ZM12.5037 12.9613L14.2712 14.7288L10.9062 18.0938C10.4663 18.5338 9.895 18.7537 9.32375 18.7537C8.7725 18.7537 8.22 18.5487 7.78625 18.1375L5.99875 16.445L7.7175 14.63L9.31875 16.1462L12.5037 12.9613ZM12.5037 19.2113L14.2712 20.9788L10.9062 24.3438C10.4663 24.7838 9.895 25.0037 9.32375 25.0037C8.7725 25.0037 8.22 24.7987 7.78625 24.3875L5.99875 22.6938L7.7175 20.88L9.31875 22.3962L12.5037 19.2113ZM16.9275 15H23.75V17.5H14.375L16.9275 15ZM16.9275 21.25H23.75V23.75H14.375L16.9275 21.25Z" fill="white"/>
</svg>
