<svg width="30" height="31" viewBox="0 0 30 31" fill="none" xmlns="http://www.w3.org/2000/svg">
<rect y="0.5" width="30" height="30" rx="15" fill="#F5F5F8"/>
<path d="M14.23 20.716C13.486 20.716 12.868 20.59 12.376 20.338C11.884 20.086 11.518 19.75 11.278 19.33C11.038 18.91 10.918 18.454 10.918 17.962C10.918 17.362 11.068 16.852 11.368 16.432C11.68 16.012 12.124 15.688 12.7 15.46C13.288 15.232 13.984 15.118 14.788 15.118H17.146C17.146 14.59 17.068 14.158 16.912 13.822C16.756 13.474 16.522 13.216 16.21 13.048C15.898 12.868 15.514 12.778 15.058 12.778C14.518 12.778 14.05 12.91 13.654 13.174C13.258 13.426 13.018 13.81 12.934 14.326H11.134C11.206 13.678 11.422 13.132 11.782 12.688C12.154 12.232 12.628 11.884 13.204 11.644C13.78 11.392 14.398 11.266 15.058 11.266C15.898 11.266 16.606 11.416 17.182 11.716C17.758 12.016 18.196 12.442 18.496 12.994C18.796 13.534 18.946 14.182 18.946 14.938V20.5H17.38L17.236 18.97C17.116 19.21 16.96 19.438 16.768 19.654C16.588 19.87 16.372 20.056 16.12 20.212C15.88 20.368 15.598 20.488 15.274 20.572C14.962 20.668 14.614 20.716 14.23 20.716ZM14.572 19.258C14.956 19.258 15.304 19.18 15.616 19.024C15.928 18.868 16.192 18.658 16.408 18.394C16.636 18.118 16.804 17.812 16.912 17.476C17.032 17.14 17.098 16.786 17.11 16.414V16.378H14.968C14.452 16.378 14.032 16.444 13.708 16.576C13.384 16.696 13.15 16.87 13.006 17.098C12.874 17.314 12.808 17.56 12.808 17.836C12.808 18.124 12.874 18.376 13.006 18.592C13.15 18.808 13.354 18.976 13.618 19.096C13.882 19.204 14.2 19.258 14.572 19.258Z" fill="#4B5462"/>
</svg>
