<svg width="30" height="31" viewBox="0 0 30 31" fill="none" xmlns="http://www.w3.org/2000/svg">
<rect y="0.5" width="30" height="30" rx="15" fill="#F5F5F8"/>
<path d="M16.174 20.716C15.682 20.716 15.238 20.65 14.842 20.518C14.446 20.386 14.092 20.2 13.78 19.96C13.48 19.72 13.228 19.438 13.024 19.114L12.844 20.5H11.224V7.54H13.024V12.904C13.312 12.46 13.714 12.076 14.23 11.752C14.746 11.428 15.394 11.266 16.174 11.266C17.05 11.266 17.812 11.476 18.46 11.896C19.12 12.304 19.636 12.862 20.008 13.57C20.38 14.278 20.566 15.088 20.566 16C20.566 16.912 20.38 17.722 20.008 18.43C19.636 19.138 19.12 19.696 18.46 20.104C17.8 20.512 17.038 20.716 16.174 20.716ZM15.886 19.15C16.438 19.15 16.93 19.018 17.362 18.754C17.794 18.49 18.13 18.124 18.37 17.656C18.622 17.176 18.748 16.624 18.748 16C18.748 15.376 18.622 14.83 18.37 14.362C18.13 13.882 17.794 13.51 17.362 13.246C16.93 12.97 16.438 12.832 15.886 12.832C15.322 12.832 14.824 12.97 14.392 13.246C13.96 13.51 13.624 13.876 13.384 14.344C13.144 14.812 13.024 15.364 13.024 16C13.024 16.624 13.144 17.176 13.384 17.656C13.624 18.124 13.96 18.49 14.392 18.754C14.824 19.018 15.322 19.15 15.886 19.15Z" fill="#4B5462"/>
</svg>
