<svg width="30" height="31" viewBox="0 0 30 31" fill="none" xmlns="http://www.w3.org/2000/svg">
<rect y="0.5" width="30" height="30" rx="15" fill="#F5F5F8"/>
<path d="M15.418 20.716C14.542 20.716 13.762 20.518 13.078 20.122C12.394 19.726 11.854 19.174 11.458 18.466C11.074 17.758 10.882 16.936 10.882 16C10.882 15.064 11.074 14.242 11.458 13.534C11.854 12.826 12.394 12.274 13.078 11.878C13.762 11.47 14.542 11.266 15.418 11.266C16.522 11.266 17.44 11.554 18.172 12.13C18.916 12.706 19.39 13.48 19.594 14.452H17.722C17.614 13.936 17.344 13.534 16.912 13.246C16.48 12.958 15.976 12.814 15.4 12.814C14.92 12.814 14.476 12.934 14.068 13.174C13.66 13.414 13.33 13.774 13.078 14.254C12.838 14.722 12.718 15.304 12.718 16C12.718 16.516 12.79 16.972 12.934 17.368C13.078 17.764 13.27 18.1 13.51 18.376C13.762 18.64 14.05 18.844 14.374 18.988C14.698 19.12 15.04 19.186 15.4 19.186C15.796 19.186 16.15 19.126 16.462 19.006C16.786 18.874 17.056 18.688 17.272 18.448C17.5 18.196 17.65 17.896 17.722 17.548H19.594C19.402 18.496 18.928 19.264 18.172 19.852C17.428 20.428 16.51 20.716 15.418 20.716Z" fill="#4B5462"/>
</svg>
