<svg width="30" height="31" viewBox="0 0 30 31" fill="none" xmlns="http://www.w3.org/2000/svg">
<rect y="0.5" width="30" height="30" rx="15" fill="#F5F5F8"/>
<path d="M15.256 20.716C14.392 20.716 13.63 20.512 12.97 20.104C12.31 19.696 11.794 19.132 11.422 18.412C11.062 17.692 10.882 16.882 10.882 15.982C10.882 15.07 11.062 14.26 11.422 13.552C11.794 12.844 12.316 12.286 12.988 11.878C13.66 11.47 14.428 11.266 15.292 11.266C16 11.266 16.624 11.41 17.164 11.698C17.704 11.974 18.124 12.37 18.424 12.886V7.54H20.224V20.5H18.604L18.424 19.096C18.244 19.372 18.01 19.636 17.722 19.888C17.434 20.128 17.086 20.326 16.678 20.482C16.27 20.638 15.796 20.716 15.256 20.716ZM15.562 19.15C16.126 19.15 16.618 19.018 17.038 18.754C17.47 18.49 17.806 18.124 18.046 17.656C18.286 17.176 18.406 16.624 18.406 16C18.406 15.364 18.286 14.812 18.046 14.344C17.806 13.864 17.47 13.492 17.038 13.228C16.618 12.964 16.126 12.832 15.562 12.832C15.01 12.832 14.518 12.964 14.086 13.228C13.654 13.492 13.318 13.864 13.078 14.344C12.838 14.812 12.718 15.364 12.718 16C12.718 16.624 12.838 17.176 13.078 17.656C13.318 18.124 13.654 18.49 14.086 18.754C14.518 19.018 15.01 19.15 15.562 19.15Z" fill="#4B5462"/>
</svg>
