<svg width="60" height="61" viewBox="0 0 60 61" fill="none" xmlns="http://www.w3.org/2000/svg">
<path d="M30 40.5C32.07 40.5 33.75 42.18 33.75 44.25C33.75 46.32 32.07 48 30 48C27.93 48 26.25 46.32 26.25 44.25C26.25 42.18 27.93 40.5 30 40.5ZM32.5 35.5C32.5 34.0975 33.52 32.4375 34.82 31.72C38.57 29.6525 40.5875 25.4125 39.8425 21.165C39.135 17.13 35.8225 13.82 31.79 13.115C28.845 12.6025 25.8425 13.39 23.5725 15.2975C21.3025 17.205 20 19.995 20 22.9575C20 24.3375 21.12 25.4575 22.5 25.4575C23.88 25.4575 25 24.3375 25 22.9575C25 21.4775 25.6525 20.08 26.7875 19.125C27.94 18.155 29.41 17.77 30.9275 18.0375C32.895 18.3825 34.5725 20.06 34.9175 22.0275C35.3 24.2025 34.315 26.2875 32.4075 27.34C29.5175 28.9325 27.5 32.2875 27.5 35.5C27.5 36.8825 28.62 38 30 38C31.38 38 32.5 36.8825 32.5 35.5ZM60 48V13C60 6.1075 54.3925 0.5 47.5 0.5H12.5C5.6075 0.5 0 6.1075 0 13V48C0 54.8925 5.6075 60.5 12.5 60.5H47.5C54.3925 60.5 60 54.8925 60 48ZM47.5 5.5C51.635 5.5 55 8.865 55 13V48C55 52.135 51.635 55.5 47.5 55.5H12.5C8.365 55.5 5 52.135 5 48V13C5 8.865 8.365 5.5 12.5 5.5H47.5Z" fill="#0FA379"/>
</svg>
