<svg width="210" height="168" viewBox="0 0 210 168" fill="none" xmlns="http://www.w3.org/2000/svg">
<path opacity="0.2" d="M182.562 28.2467C202.214 53.0526 204.379 97.1706 185.726 126.472C167.24 155.606 127.936 169.757 93.9608 166.594C59.9859 163.597 31.1739 143.286 17.1842 116.816C3.19453 90.3448 4.02724 57.7141 18.35 35.9049C32.6727 14.0956 60.6521 3.27421 93.2946 0.61048C125.771 -2.05325 162.91 3.44069 182.562 28.2467Z" fill="#ADDDC0"/>
<circle opacity="0.5" cx="204.219" cy="123.987" r="5.78178" fill="#2B9A66"/>
<circle opacity="0.5" cx="11.5636" cy="147.757" r="11.5636" fill="#2B9A66"/>
<circle opacity="0.5" cx="14.7743" cy="16.0605" r="4.49694" fill="#2B9A66"/>
<path d="M163.306 41.8511C178.21 60.551 179.852 93.8092 165.706 115.898C151.686 137.861 121.878 148.528 96.1121 146.144C70.3459 143.885 48.4951 128.573 37.8855 108.618C27.2759 88.6636 27.9074 64.065 38.7697 47.6242C49.6319 31.1834 70.8511 23.0257 95.6068 21.0177C120.236 19.0096 148.402 23.1512 163.306 41.8511Z" fill="#2B9A66"/>
<path fill-rule="evenodd" clip-rule="evenodd" d="M130.486 83.5147C130.486 98.4162 118.406 110.496 103.504 110.496C88.6026 110.496 76.5225 98.4162 76.5225 83.5147C76.5225 68.6131 88.6026 56.533 103.504 56.533C118.406 56.533 130.486 68.6131 130.486 83.5147ZM134.34 83.5147C134.34 100.545 120.534 114.351 103.504 114.351C86.4738 114.351 72.668 100.545 72.668 83.5147C72.668 66.4843 86.4738 52.6785 103.504 52.6785C120.534 52.6785 134.34 66.4843 134.34 83.5147ZM118.334 75.9073C119.1 75.1679 119.121 73.9478 118.382 73.1821C117.643 72.4164 116.423 72.395 115.657 73.1343L98.389 89.8067L92.019 83.4367C91.2664 82.6841 90.0461 82.6841 89.2935 83.4367C88.5408 84.1894 88.5408 85.4096 89.2935 86.1623L96.1098 92.9786C97.3487 94.2175 99.3518 94.235 100.612 93.0181L118.334 75.9073Z" fill="white"/>
</svg>
