<svg width="30" height="31" viewBox="0 0 30 31" fill="none" xmlns="http://www.w3.org/2000/svg">
<path d="M5.1 25.0292H17.4025C16.7763 21.0492 13.2925 18.2417 11.2675 16.9205C9.2225 18.2617 5.7325 21.083 5.1 25.0292ZM11.2738 20.0067C12.11 20.6767 13.0013 21.528 13.7025 22.5292H8.83625C9.56 21.5155 10.47 20.6567 11.2738 20.0067ZM22.5012 7.52799C18.365 7.52799 15.0013 10.8917 15.0013 15.028C15.0013 19.1642 18.365 22.528 22.5012 22.528C26.6375 22.528 30.0012 19.1642 30.0012 15.028C30.0012 10.8917 26.6375 7.52799 22.5012 7.52799ZM22.5012 20.028C19.7437 20.028 17.5013 17.7855 17.5013 15.028C17.5013 12.2705 19.7437 10.028 22.5012 10.028C25.2587 10.028 27.5012 12.2705 27.5012 15.028C27.5012 17.7855 25.2587 20.028 22.5012 20.028ZM23.7512 14.4992L25.5912 16.2867L23.85 18.0805L21.2512 15.5567V11.278H23.7512V14.4992ZM22.415 25.023C22.455 25.4367 22.5012 25.8467 22.5012 26.278V30.028H0V26.278C0 21.2717 2.8 17.513 5.5525 15.028C2.8 12.5442 0 8.78549 0 3.77924C0 1.71174 1.6825 0.0292358 3.75 0.0292358H18.7513C19.7525 0.0292358 20.6938 0.419236 21.4013 1.12674C22.1087 1.83424 22.5 2.77674 22.5 3.77924C22.5 4.21049 22.4538 4.62049 22.4137 5.03299C21.5338 5.04049 20.685 5.16799 19.8738 5.38924C19.9538 4.86924 20 4.33424 20 3.77924C20 3.44549 19.87 3.13049 19.6337 2.89424C19.3988 2.65924 19.085 2.52924 18.7513 2.52924H3.75C3.06 2.52924 2.5 3.09049 2.5 3.77924C2.5 8.49549 5.635 11.9667 8.265 14.0492L9.5025 15.0292L8.26375 16.0092C5.63375 18.0905 2.5 21.5617 2.5 26.278V27.528H20V26.278C20 25.723 19.9538 25.1867 19.8725 24.6667C20.6838 24.888 21.5338 25.0155 22.4125 25.023H22.415Z" fill="#0FA379"/>
</svg>
